<mxfile host="app.diagrams.net" modified="2022-11-13T05:09:13.250Z" agent="5.0 (Macintosh; Intel Mac OS X 10_15_7) AppleWebKit/537.36 (KHTML, like Gecko) Chrome/107.0.0.0 Safari/537.36" etag="Va3N8QhhMSvvwlslwne_" version="20.5.2" type="github" pages="5">
  <diagram id="au1mfuSCRIfY2lwQPLzJ" name="dvm">
    <mxGraphModel dx="1919" dy="-446" grid="1" gridSize="10" guides="1" tooltips="1" connect="1" arrows="1" fold="1" page="1" pageScale="1" pageWidth="827" pageHeight="1169" math="0" shadow="0">
      <root>
        <mxCell id="0" />
        <mxCell id="1" parent="0" />
        <mxCell id="RqiKKZTVA0LiO__BmSLx-1" style="edgeStyle=orthogonalEdgeStyle;curved=1;rounded=0;sketch=1;orthogonalLoop=1;jettySize=auto;html=1;" parent="1" source="RqiKKZTVA0LiO__BmSLx-3" target="RqiKKZTVA0LiO__BmSLx-17" edge="1">
          <mxGeometry relative="1" as="geometry" />
        </mxCell>
        <mxCell id="RqiKKZTVA0LiO__BmSLx-2" value="write" style="edgeLabel;html=1;align=center;verticalAlign=middle;resizable=0;points=[];" parent="RqiKKZTVA0LiO__BmSLx-1" vertex="1" connectable="0">
          <mxGeometry x="-0.0655" y="1" relative="1" as="geometry">
            <mxPoint as="offset" />
          </mxGeometry>
        </mxCell>
        <mxCell id="RqiKKZTVA0LiO__BmSLx-3" value="" style="whiteSpace=wrap;html=1;sketch=1;rounded=1;" parent="1" vertex="1">
          <mxGeometry x="-209.25" y="1739" width="567" height="122" as="geometry" />
        </mxCell>
        <mxCell id="RqiKKZTVA0LiO__BmSLx-4" value="DVM" style="text;html=1;strokeColor=none;fillColor=none;align=center;verticalAlign=middle;whiteSpace=wrap;rounded=0;sketch=1;" parent="1" vertex="1">
          <mxGeometry x="-5.25" y="1785" width="140" height="30" as="geometry" />
        </mxCell>
        <mxCell id="RqiKKZTVA0LiO__BmSLx-5" style="edgeStyle=orthogonalEdgeStyle;curved=1;rounded=0;sketch=1;orthogonalLoop=1;jettySize=auto;html=1;entryX=0.463;entryY=-0.008;entryDx=0;entryDy=0;entryPerimeter=0;" parent="1" source="RqiKKZTVA0LiO__BmSLx-6" target="RqiKKZTVA0LiO__BmSLx-3" edge="1">
          <mxGeometry relative="1" as="geometry" />
        </mxCell>
        <mxCell id="RqiKKZTVA0LiO__BmSLx-6" value="developer friendly&lt;br&gt;program language" style="shape=document;whiteSpace=wrap;html=1;boundedLbl=1;rounded=1;sketch=1;" parent="1" vertex="1">
          <mxGeometry x="-6.25" y="1619" width="120" height="80" as="geometry" />
        </mxCell>
        <mxCell id="RqiKKZTVA0LiO__BmSLx-7" value="table event syscall" style="rounded=0;whiteSpace=wrap;html=1;sketch=1;" parent="1" vertex="1">
          <mxGeometry x="-204.25" y="1743" width="177.5" height="29" as="geometry" />
        </mxCell>
        <mxCell id="RqiKKZTVA0LiO__BmSLx-8" value="zk proof&amp;nbsp;&lt;span class=&quot;op_dict3_highlight&quot; style=&quot;font-family: &amp;#34;arial&amp;#34; , sans-serif ; font-size: 13px&quot;&gt;algorithm 1&amp;nbsp;&lt;/span&gt;syscall" style="rounded=0;whiteSpace=wrap;html=1;sketch=1;" parent="1" vertex="1">
          <mxGeometry x="170.25" y="1751" width="176.5" height="28" as="geometry" />
        </mxCell>
        <mxCell id="RqiKKZTVA0LiO__BmSLx-9" value="zk proof&amp;nbsp;&lt;span class=&quot;op_dict3_highlight&quot; style=&quot;font-family: &amp;#34;arial&amp;#34; , sans-serif ; font-size: 13px&quot;&gt;algorithm 2&amp;nbsp;&lt;/span&gt;syscall" style="rounded=0;whiteSpace=wrap;html=1;sketch=1;" parent="1" vertex="1">
          <mxGeometry x="169.5" y="1790" width="176.5" height="26" as="geometry" />
        </mxCell>
        <mxCell id="RqiKKZTVA0LiO__BmSLx-10" value="zk proof&amp;nbsp;&lt;span class=&quot;op_dict3_highlight&quot; style=&quot;font-family: &amp;#34;arial&amp;#34; , sans-serif ; font-size: 13px&quot;&gt;algorithm 2&amp;nbsp;&lt;/span&gt;syscall" style="rounded=0;whiteSpace=wrap;html=1;sketch=1;" parent="1" vertex="1">
          <mxGeometry x="170.75" y="1823" width="176.5" height="26" as="geometry" />
        </mxCell>
        <mxCell id="RqiKKZTVA0LiO__BmSLx-11" value="table listener syscall" style="rounded=0;whiteSpace=wrap;html=1;sketch=1;" parent="1" vertex="1">
          <mxGeometry x="-203.25" y="1785" width="176.5" height="31" as="geometry" />
        </mxCell>
        <mxCell id="RqiKKZTVA0LiO__BmSLx-12" value="table query syscall" style="rounded=0;whiteSpace=wrap;html=1;sketch=1;" parent="1" vertex="1">
          <mxGeometry x="-203.25" y="1825" width="176.5" height="28" as="geometry" />
        </mxCell>
        <mxCell id="RqiKKZTVA0LiO__BmSLx-13" style="edgeStyle=orthogonalEdgeStyle;curved=1;rounded=0;sketch=1;orthogonalLoop=1;jettySize=auto;html=1;entryX=-0.001;entryY=0.434;entryDx=0;entryDy=0;entryPerimeter=0;" parent="1" source="RqiKKZTVA0LiO__BmSLx-14" target="RqiKKZTVA0LiO__BmSLx-3" edge="1">
          <mxGeometry relative="1" as="geometry" />
        </mxCell>
        <mxCell id="RqiKKZTVA0LiO__BmSLx-14" value="Account1" style="shape=umlActor;verticalLabelPosition=bottom;verticalAlign=top;html=1;outlineConnect=0;rounded=1;sketch=1;" parent="1" vertex="1">
          <mxGeometry x="-404" y="1670" width="30" height="60" as="geometry" />
        </mxCell>
        <mxCell id="RqiKKZTVA0LiO__BmSLx-15" style="edgeStyle=orthogonalEdgeStyle;curved=1;rounded=0;sketch=1;orthogonalLoop=1;jettySize=auto;html=1;entryX=0;entryY=0.5;entryDx=0;entryDy=0;" parent="1" source="RqiKKZTVA0LiO__BmSLx-16" target="RqiKKZTVA0LiO__BmSLx-3" edge="1">
          <mxGeometry relative="1" as="geometry" />
        </mxCell>
        <mxCell id="RqiKKZTVA0LiO__BmSLx-16" value="Account2" style="shape=umlActor;verticalLabelPosition=bottom;verticalAlign=top;html=1;outlineConnect=0;rounded=1;sketch=1;" parent="1" vertex="1">
          <mxGeometry x="-410" y="1823" width="30" height="60" as="geometry" />
        </mxCell>
        <mxCell id="RqiKKZTVA0LiO__BmSLx-17" value="dapp&lt;br&gt;backend data table" style="rounded=1;whiteSpace=wrap;html=1;sketch=1;" parent="1" vertex="1">
          <mxGeometry x="495.25" y="1770" width="120" height="60" as="geometry" />
        </mxCell>
        <mxCell id="RqiKKZTVA0LiO__BmSLx-18" style="edgeStyle=orthogonalEdgeStyle;curved=1;rounded=0;sketch=1;orthogonalLoop=1;jettySize=auto;html=1;entryX=0.75;entryY=0;entryDx=0;entryDy=0;" parent="1" source="RqiKKZTVA0LiO__BmSLx-22" target="RqiKKZTVA0LiO__BmSLx-3" edge="1">
          <mxGeometry relative="1" as="geometry" />
        </mxCell>
        <mxCell id="RqiKKZTVA0LiO__BmSLx-19" value="query" style="edgeLabel;html=1;align=center;verticalAlign=middle;resizable=0;points=[];" parent="RqiKKZTVA0LiO__BmSLx-18" vertex="1" connectable="0">
          <mxGeometry x="-0.1036" y="34" relative="1" as="geometry">
            <mxPoint as="offset" />
          </mxGeometry>
        </mxCell>
        <mxCell id="RqiKKZTVA0LiO__BmSLx-20" style="edgeStyle=orthogonalEdgeStyle;curved=1;rounded=0;sketch=1;orthogonalLoop=1;jettySize=auto;html=1;dashed=1;startArrow=none;startFill=0;" parent="1" source="RqiKKZTVA0LiO__BmSLx-22" edge="1">
          <mxGeometry relative="1" as="geometry">
            <mxPoint x="669" y="1507" as="targetPoint" />
          </mxGeometry>
        </mxCell>
        <mxCell id="RqiKKZTVA0LiO__BmSLx-21" value="待签名数据" style="edgeLabel;html=1;align=center;verticalAlign=middle;resizable=0;points=[];" parent="RqiKKZTVA0LiO__BmSLx-20" vertex="1" connectable="0">
          <mxGeometry x="0.0698" y="3" relative="1" as="geometry">
            <mxPoint as="offset" />
          </mxGeometry>
        </mxCell>
        <mxCell id="RqiKKZTVA0LiO__BmSLx-22" value="dapp&lt;br&gt;frontend" style="rounded=1;whiteSpace=wrap;html=1;sketch=1;" parent="1" vertex="1">
          <mxGeometry x="489" y="1559" width="120" height="60" as="geometry" />
        </mxCell>
        <mxCell id="RqiKKZTVA0LiO__BmSLx-23" value="zk proof &lt;font face=&quot;arial, sans-serif&quot;&gt;&lt;span style=&quot;font-size: 13px&quot;&gt;verifier sdk&lt;/span&gt;&lt;/font&gt;" style="rounded=0;whiteSpace=wrap;html=1;sketch=1;" parent="1" vertex="1">
          <mxGeometry x="555.25" y="1611" width="122.25" height="28" as="geometry" />
        </mxCell>
        <mxCell id="RqiKKZTVA0LiO__BmSLx-24" value="zk proof &lt;font face=&quot;arial, sans-serif&quot;&gt;&lt;span style=&quot;font-size: 13px&quot;&gt;verifier sdk&lt;/span&gt;&lt;/font&gt;" style="rounded=0;whiteSpace=wrap;html=1;sketch=1;" parent="1" vertex="1">
          <mxGeometry x="552.75" y="1823" width="122.25" height="28" as="geometry" />
        </mxCell>
        <mxCell id="RqiKKZTVA0LiO__BmSLx-25" value="" style="edgeStyle=orthogonalEdgeStyle;curved=1;rounded=0;sketch=1;orthogonalLoop=1;jettySize=auto;html=1;dashed=1;startArrow=none;startFill=0;" parent="1" target="RqiKKZTVA0LiO__BmSLx-28" edge="1">
          <mxGeometry relative="1" as="geometry">
            <mxPoint x="609" y="1477" as="sourcePoint" />
          </mxGeometry>
        </mxCell>
        <mxCell id="RqiKKZTVA0LiO__BmSLx-26" style="edgeStyle=orthogonalEdgeStyle;curved=1;rounded=0;sketch=1;orthogonalLoop=1;jettySize=auto;html=1;entryX=1;entryY=0.25;entryDx=0;entryDy=0;dashed=1;startArrow=none;startFill=0;" parent="1" target="RqiKKZTVA0LiO__BmSLx-22" edge="1">
          <mxGeometry relative="1" as="geometry">
            <mxPoint x="669" y="1507" as="sourcePoint" />
          </mxGeometry>
        </mxCell>
        <mxCell id="RqiKKZTVA0LiO__BmSLx-27" value="签名后" style="edgeLabel;html=1;align=center;verticalAlign=middle;resizable=0;points=[];" parent="RqiKKZTVA0LiO__BmSLx-26" vertex="1" connectable="0">
          <mxGeometry x="-0.3228" y="-4" relative="1" as="geometry">
            <mxPoint as="offset" />
          </mxGeometry>
        </mxCell>
        <mxCell id="RqiKKZTVA0LiO__BmSLx-28" value="弹窗" style="rounded=1;whiteSpace=wrap;html=1;sketch=1;" parent="1" vertex="1">
          <mxGeometry x="409" y="1447" width="120" height="60" as="geometry" />
        </mxCell>
        <mxCell id="RqiKKZTVA0LiO__BmSLx-29" value="钱包" style="rounded=1;whiteSpace=wrap;html=1;sketch=1;" parent="1" vertex="1">
          <mxGeometry x="609" y="1447" width="120" height="60" as="geometry" />
        </mxCell>
      </root>
    </mxGraphModel>
  </diagram>
  <diagram id="ytNvrTIupeLsbMPtZge0" name="permission">
    <mxGraphModel dx="2144" dy="-370" grid="1" gridSize="10" guides="1" tooltips="1" connect="1" arrows="1" fold="1" page="1" pageScale="1" pageWidth="827" pageHeight="1169" math="0" shadow="0">
      <root>
        <mxCell id="JspC3MRnDRWWDyyXU9yK-0" />
        <mxCell id="JspC3MRnDRWWDyyXU9yK-1" parent="JspC3MRnDRWWDyyXU9yK-0" />
        <mxCell id="JspC3MRnDRWWDyyXU9yK-2" style="edgeStyle=orthogonalEdgeStyle;curved=1;rounded=0;sketch=1;orthogonalLoop=1;jettySize=auto;html=1;dashed=1;startArrow=none;startFill=0;entryX=0;entryY=0.5;entryDx=0;entryDy=0;" parent="JspC3MRnDRWWDyyXU9yK-1" source="JspC3MRnDRWWDyyXU9yK-4" target="JspC3MRnDRWWDyyXU9yK-7" edge="1">
          <mxGeometry relative="1" as="geometry">
            <mxPoint x="-483.59000000000003" y="1322" as="targetPoint" />
          </mxGeometry>
        </mxCell>
        <mxCell id="JspC3MRnDRWWDyyXU9yK-3" style="edgeStyle=orthogonalEdgeStyle;curved=1;rounded=0;sketch=1;orthogonalLoop=1;jettySize=auto;html=1;entryX=0;entryY=0.5;entryDx=0;entryDy=0;dashed=1;startArrow=none;startFill=0;" parent="JspC3MRnDRWWDyyXU9yK-1" source="JspC3MRnDRWWDyyXU9yK-4" target="JspC3MRnDRWWDyyXU9yK-8" edge="1">
          <mxGeometry relative="1" as="geometry" />
        </mxCell>
        <mxCell id="JspC3MRnDRWWDyyXU9yK-4" value="DB3Pallet" style="text;html=1;strokeColor=none;fillColor=none;align=center;verticalAlign=middle;whiteSpace=wrap;rounded=0;sketch=1;" parent="JspC3MRnDRWWDyyXU9yK-1" vertex="1">
          <mxGeometry x="-659.59" y="1367" width="60" height="30" as="geometry" />
        </mxCell>
        <mxCell id="JspC3MRnDRWWDyyXU9yK-5" style="edgeStyle=orthogonalEdgeStyle;curved=1;rounded=0;sketch=1;orthogonalLoop=1;jettySize=auto;html=1;entryX=0.5;entryY=0;entryDx=0;entryDy=0;dashed=1;startArrow=none;startFill=0;" parent="JspC3MRnDRWWDyyXU9yK-1" source="JspC3MRnDRWWDyyXU9yK-7" target="JspC3MRnDRWWDyyXU9yK-8" edge="1">
          <mxGeometry relative="1" as="geometry" />
        </mxCell>
        <mxCell id="JspC3MRnDRWWDyyXU9yK-6" value="add/delete" style="edgeLabel;html=1;align=center;verticalAlign=middle;resizable=0;points=[];" parent="JspC3MRnDRWWDyyXU9yK-5" vertex="1" connectable="0">
          <mxGeometry x="-0.1579" y="1" relative="1" as="geometry">
            <mxPoint as="offset" />
          </mxGeometry>
        </mxCell>
        <mxCell id="JspC3MRnDRWWDyyXU9yK-7" value="owner map&lt;br&gt;account -&amp;gt; table" style="rounded=0;whiteSpace=wrap;html=1;sketch=1;" parent="JspC3MRnDRWWDyyXU9yK-1" vertex="1">
          <mxGeometry x="-470.34000000000003" y="1280" width="173.75" height="60" as="geometry" />
        </mxCell>
        <mxCell id="JspC3MRnDRWWDyyXU9yK-8" value="delegate map ttl&lt;br&gt;account -&amp;gt; (table, owner，type)" style="rounded=0;whiteSpace=wrap;html=1;sketch=1;" parent="JspC3MRnDRWWDyyXU9yK-1" vertex="1">
          <mxGeometry x="-470.34000000000003" y="1397" width="173.75" height="60" as="geometry" />
        </mxCell>
        <mxCell id="JspC3MRnDRWWDyyXU9yK-10" value="&lt;h1&gt;引用&lt;/h1&gt;&lt;p&gt;1.https://github.com/substrate-developer-hub/pallet-did/blob/master/src/lib.rs&lt;/p&gt;" style="text;html=1;strokeColor=none;fillColor=none;spacing=5;spacingTop=-20;whiteSpace=wrap;overflow=hidden;rounded=0;sketch=1;" parent="JspC3MRnDRWWDyyXU9yK-1" vertex="1">
          <mxGeometry x="-659.18" y="2640" width="423" height="100" as="geometry" />
        </mxCell>
        <mxCell id="dPyY0is527RGtIY5r8id-0" value="&lt;h1&gt;Account&lt;/h1&gt;&lt;p&gt;账户用于标识的身份信息，比如一个人使用db3，需要有个自己的钱包账户，一个应用使用db3存储数据需要一个账户，而每个账户会有一个公钥和私钥，&lt;/p&gt;&lt;p&gt;每个账户进行交易或者执行sql操作，都需要先对请求用私钥签名，保证交易不会被串改，已经身份识别；链上节点会使用账户广播的公钥去验证签名适合合法以及身份识别&lt;/p&gt;&lt;p&gt;&lt;br&gt;&lt;/p&gt;" style="text;html=1;strokeColor=none;fillColor=none;spacing=5;spacingTop=-20;whiteSpace=wrap;overflow=hidden;rounded=0;sketch=1;" vertex="1" parent="JspC3MRnDRWWDyyXU9yK-1">
          <mxGeometry x="-659.59" y="1500" width="609.59" height="130" as="geometry" />
        </mxCell>
        <mxCell id="dPyY0is527RGtIY5r8id-1" value="&lt;h1&gt;Table&lt;/h1&gt;&lt;p&gt;用户的数据用表来表达，表名可以用xxx.xxx来避免重复，类似java的package名称，比如stepn.Location，表示stepn在用户下面建立了一个坐标数据库&lt;/p&gt;" style="text;html=1;strokeColor=none;fillColor=none;spacing=5;spacingTop=-20;whiteSpace=wrap;overflow=hidden;rounded=0;sketch=1;" vertex="1" parent="JspC3MRnDRWWDyyXU9yK-1">
          <mxGeometry x="-659.59" y="1756.5" width="609.59" height="90" as="geometry" />
        </mxCell>
        <mxCell id="dPyY0is527RGtIY5r8id-2" value="&lt;h1&gt;Delegate&lt;/h1&gt;&lt;p&gt;delegate 为账户代理账户，它本身也是账户，也有公钥和私钥，相比账户，delegate还会有delegate type定义&lt;/p&gt;&lt;p&gt;&lt;/p&gt;&lt;ol&gt;&lt;li&gt;Delegate Read， 数据读权限&lt;/li&gt;&lt;li&gt;Delegate Write， 数据写入权限，写入也包含对表的删除和schema修改等操作&lt;/li&gt;&lt;/ol&gt;&lt;div&gt;&lt;br&gt;&lt;/div&gt;&lt;p&gt;&lt;/p&gt;" style="text;html=1;strokeColor=none;fillColor=none;spacing=5;spacingTop=-20;whiteSpace=wrap;overflow=hidden;rounded=0;sketch=1;" vertex="1" parent="JspC3MRnDRWWDyyXU9yK-1">
          <mxGeometry x="-659.18" y="1860" width="609.59" height="130" as="geometry" />
        </mxCell>
        <mxCell id="dPyY0is527RGtIY5r8id-3" value="&lt;h1&gt;Balance&lt;/h1&gt;&lt;p&gt;账户资产，与账户一一对应，比如某个账户的balance有3个DB3，&lt;/p&gt;" style="text;html=1;strokeColor=none;fillColor=none;spacing=5;spacingTop=-20;whiteSpace=wrap;overflow=hidden;rounded=0;sketch=1;" vertex="1" parent="JspC3MRnDRWWDyyXU9yK-1">
          <mxGeometry x="-660" y="1650" width="609.59" height="90" as="geometry" />
        </mxCell>
        <mxCell id="dPyY0is527RGtIY5r8id-4" value="&lt;h1&gt;Pallet 设计&lt;/h1&gt;&lt;p&gt;数据结构&lt;/p&gt;&lt;p&gt;&lt;/p&gt;&lt;ol&gt;&lt;li&gt;ownership管理，Map&amp;lt;Account, Table&amp;gt;, key为账户，value为表数据&lt;/li&gt;&lt;li&gt;delegate 管理， Map&amp;lt;Delegate, (Type, Table, Owner, TTL)&amp;gt;，key为delegate，value为type, table ，owner, ttl&lt;/li&gt;&lt;/ol&gt;&lt;div&gt;runtime方法列表&lt;/div&gt;&lt;div&gt;&lt;ol&gt;&lt;li&gt;get_owner, 返回table的owner，输入需要是签名&lt;/li&gt;&lt;li&gt;add_delegate, 添加一个delegate&lt;/li&gt;&lt;li&gt;remove_delegate， 删除一个delegate&lt;/li&gt;&lt;li&gt;update_delegate_ttl，更新delegate的ttl，只能owner操作&lt;/li&gt;&lt;/ol&gt;&lt;/div&gt;&lt;p&gt;&lt;/p&gt;&lt;p&gt;&lt;/p&gt;" style="text;html=1;strokeColor=none;fillColor=none;spacing=5;spacingTop=-20;whiteSpace=wrap;overflow=hidden;rounded=0;sketch=1;" vertex="1" parent="JspC3MRnDRWWDyyXU9yK-1">
          <mxGeometry x="-659.18" y="2010" width="629.18" height="210" as="geometry" />
        </mxCell>
        <mxCell id="dPyY0is527RGtIY5r8id-5" value="&lt;h1&gt;DB3 账户和交互设计&lt;/h1&gt;" style="text;html=1;strokeColor=none;fillColor=none;spacing=5;spacingTop=-20;whiteSpace=wrap;overflow=hidden;rounded=0;" vertex="1" parent="JspC3MRnDRWWDyyXU9yK-1">
          <mxGeometry x="-530" y="1190" width="395" height="120" as="geometry" />
        </mxCell>
        <mxCell id="dPyY0is527RGtIY5r8id-6" value="&lt;h1&gt;Dapp与用户交互&lt;/h1&gt;&lt;p&gt;&lt;br&gt;&lt;/p&gt;&lt;h4&gt;dapp初始化&lt;/h4&gt;&lt;div&gt;&lt;ol&gt;&lt;li&gt;应用或者用户&lt;b&gt;新生成&lt;/b&gt;一个公私钥账户A，它将用于代理账户，这个账户的私钥将会给到应用&lt;/li&gt;&lt;li&gt;用户发起一条交易，将账户A加入到Delegate里面，并按照应用需要授予读或者写入权限&lt;/li&gt;&lt;li&gt;应用或者用户向账户A转入少量的DB3，用于支付DB3 gas费&lt;/li&gt;&lt;/ol&gt;&lt;h4&gt;dapp数据交互&lt;/h4&gt;&lt;ol&gt;&lt;li&gt;dapp写入一条数据，通过账户A私钥签名，发送到DB3&amp;nbsp;&lt;/li&gt;&lt;li&gt;dapp查询一条数据，通过账户A私钥签名，发送到DB3&lt;/li&gt;&lt;/ol&gt;&lt;h4&gt;dapp用户配置&lt;/h4&gt;&lt;/div&gt;&lt;div&gt;&lt;ol&gt;&lt;li&gt;配置授权过期时间&lt;/li&gt;&lt;li&gt;删除dapp的访问权限&lt;/li&gt;&lt;/ol&gt;&lt;/div&gt;&lt;p&gt;&lt;/p&gt;&lt;p&gt;&lt;/p&gt;" style="text;html=1;strokeColor=none;fillColor=none;spacing=5;spacingTop=-20;whiteSpace=wrap;overflow=hidden;rounded=0;sketch=1;" vertex="1" parent="JspC3MRnDRWWDyyXU9yK-1">
          <mxGeometry x="-660" y="2270" width="630" height="320" as="geometry" />
        </mxCell>
      </root>
    </mxGraphModel>
  </diagram>
  <diagram id="dX5BMmUGx8PzvfzmPMz4" name="roadmap">
    <mxGraphModel dx="1933" dy="-172" grid="1" gridSize="10" guides="1" tooltips="1" connect="1" arrows="1" fold="1" page="1" pageScale="1" pageWidth="827" pageHeight="1169" math="0" shadow="0">
      <root>
        <mxCell id="EadVcGzMkbPfr380RvID-0" />
        <mxCell id="EadVcGzMkbPfr380RvID-1" parent="EadVcGzMkbPfr380RvID-0" />
        <mxCell id="EadVcGzMkbPfr380RvID-2" value="&lt;h1&gt;Phase 1- Decentralized MVP&amp;nbsp;&lt;/h1&gt;" style="text;html=1;strokeColor=none;fillColor=none;spacing=5;spacingTop=-20;whiteSpace=wrap;overflow=hidden;labelBackgroundColor=none;sketch=1;rounded=1;" vertex="1" parent="EadVcGzMkbPfr380RvID-1">
          <mxGeometry x="-218" y="2398" width="503" height="76" as="geometry" />
        </mxCell>
        <mxCell id="EadVcGzMkbPfr380RvID-3" value="" style="edgeStyle=orthogonalEdgeStyle;orthogonalLoop=1;jettySize=auto;html=1;startArrow=none;startFill=0;sketch=1;curved=1;" edge="1" parent="EadVcGzMkbPfr380RvID-1" source="EadVcGzMkbPfr380RvID-6" target="EadVcGzMkbPfr380RvID-10">
          <mxGeometry relative="1" as="geometry" />
        </mxCell>
        <mxCell id="EadVcGzMkbPfr380RvID-4" style="edgeStyle=orthogonalEdgeStyle;orthogonalLoop=1;jettySize=auto;html=1;entryX=0.5;entryY=0;entryDx=0;entryDy=0;startArrow=none;startFill=0;strokeColor=#000000;sketch=1;curved=1;" edge="1" parent="EadVcGzMkbPfr380RvID-1" source="EadVcGzMkbPfr380RvID-6" target="EadVcGzMkbPfr380RvID-14">
          <mxGeometry relative="1" as="geometry" />
        </mxCell>
        <mxCell id="EadVcGzMkbPfr380RvID-5" value="Check&lt;br&gt;Pending Pool" style="edgeLabel;html=1;align=center;verticalAlign=middle;resizable=0;points=[];sketch=1;rounded=1;" vertex="1" connectable="0" parent="EadVcGzMkbPfr380RvID-4">
          <mxGeometry x="-0.1111" y="-2" relative="1" as="geometry">
            <mxPoint as="offset" />
          </mxGeometry>
        </mxCell>
        <mxCell id="EadVcGzMkbPfr380RvID-6" value="" style="whiteSpace=wrap;html=1;fillColor=#d80073;strokeColor=#A50040;fontColor=#ffffff;sketch=1;rounded=1;" vertex="1" parent="EadVcGzMkbPfr380RvID-1">
          <mxGeometry x="-5.0000000000000036" y="2489" width="40" height="34" as="geometry" />
        </mxCell>
        <mxCell id="EadVcGzMkbPfr380RvID-7" value="" style="edgeStyle=orthogonalEdgeStyle;orthogonalLoop=1;jettySize=auto;html=1;startArrow=none;startFill=0;sketch=1;curved=1;" edge="1" parent="EadVcGzMkbPfr380RvID-1" source="EadVcGzMkbPfr380RvID-10" target="EadVcGzMkbPfr380RvID-12">
          <mxGeometry relative="1" as="geometry" />
        </mxCell>
        <mxCell id="EadVcGzMkbPfr380RvID-8" style="edgeStyle=orthogonalEdgeStyle;orthogonalLoop=1;jettySize=auto;html=1;entryX=0.5;entryY=0;entryDx=0;entryDy=0;startArrow=none;startFill=0;strokeColor=#000000;sketch=1;curved=1;" edge="1" parent="EadVcGzMkbPfr380RvID-1" source="EadVcGzMkbPfr380RvID-10" target="EadVcGzMkbPfr380RvID-16">
          <mxGeometry relative="1" as="geometry" />
        </mxCell>
        <mxCell id="EadVcGzMkbPfr380RvID-9" value="Elect A Node&lt;br&gt;to Execute Pending Pool" style="edgeLabel;html=1;align=center;verticalAlign=middle;resizable=0;points=[];sketch=1;rounded=1;" vertex="1" connectable="0" parent="EadVcGzMkbPfr380RvID-8">
          <mxGeometry x="-0.29" y="-5" relative="1" as="geometry">
            <mxPoint as="offset" />
          </mxGeometry>
        </mxCell>
        <mxCell id="EadVcGzMkbPfr380RvID-10" value="" style="whiteSpace=wrap;html=1;fillColor=#d80073;strokeColor=#A50040;fontColor=#ffffff;sketch=1;rounded=1;" vertex="1" parent="EadVcGzMkbPfr380RvID-1">
          <mxGeometry x="82" y="2490.5" width="42" height="32" as="geometry" />
        </mxCell>
        <mxCell id="EadVcGzMkbPfr380RvID-11" value="" style="edgeStyle=orthogonalEdgeStyle;orthogonalLoop=1;jettySize=auto;html=1;startArrow=none;startFill=0;strokeColor=#000000;sketch=1;curved=1;" edge="1" parent="EadVcGzMkbPfr380RvID-1" source="EadVcGzMkbPfr380RvID-12" target="EadVcGzMkbPfr380RvID-28">
          <mxGeometry relative="1" as="geometry" />
        </mxCell>
        <mxCell id="EadVcGzMkbPfr380RvID-12" value="" style="whiteSpace=wrap;html=1;fillColor=#d80073;strokeColor=#A50040;fontColor=#ffffff;sketch=1;rounded=1;" vertex="1" parent="EadVcGzMkbPfr380RvID-1">
          <mxGeometry x="168.5" y="2489" width="39.5" height="35" as="geometry" />
        </mxCell>
        <mxCell id="EadVcGzMkbPfr380RvID-13" value="" style="edgeStyle=orthogonalEdgeStyle;orthogonalLoop=1;jettySize=auto;html=1;startArrow=none;startFill=0;sketch=1;curved=1;" edge="1" parent="EadVcGzMkbPfr380RvID-1" source="EadVcGzMkbPfr380RvID-14" target="EadVcGzMkbPfr380RvID-16">
          <mxGeometry relative="1" as="geometry" />
        </mxCell>
        <mxCell id="EadVcGzMkbPfr380RvID-14" value="" style="whiteSpace=wrap;html=1;fillColor=#d5e8d4;strokeColor=#82b366;sketch=1;rounded=1;" vertex="1" parent="EadVcGzMkbPfr380RvID-1">
          <mxGeometry x="-39" y="2564" width="40" height="34" as="geometry" />
        </mxCell>
        <mxCell id="EadVcGzMkbPfr380RvID-15" value="" style="edgeStyle=orthogonalEdgeStyle;orthogonalLoop=1;jettySize=auto;html=1;startArrow=none;startFill=0;sketch=1;curved=1;" edge="1" parent="EadVcGzMkbPfr380RvID-1" source="EadVcGzMkbPfr380RvID-16" target="EadVcGzMkbPfr380RvID-20">
          <mxGeometry relative="1" as="geometry" />
        </mxCell>
        <mxCell id="EadVcGzMkbPfr380RvID-16" value="" style="whiteSpace=wrap;html=1;fillColor=#d5e8d4;strokeColor=#82b366;sketch=1;rounded=1;" vertex="1" parent="EadVcGzMkbPfr380RvID-1">
          <mxGeometry x="48" y="2565.5" width="42" height="32" as="geometry" />
        </mxCell>
        <mxCell id="EadVcGzMkbPfr380RvID-17" value="" style="edgeStyle=orthogonalEdgeStyle;orthogonalLoop=1;jettySize=auto;html=1;startArrow=none;startFill=0;strokeColor=#000000;sketch=1;curved=1;" edge="1" parent="EadVcGzMkbPfr380RvID-1" source="EadVcGzMkbPfr380RvID-20" target="EadVcGzMkbPfr380RvID-29">
          <mxGeometry relative="1" as="geometry" />
        </mxCell>
        <mxCell id="EadVcGzMkbPfr380RvID-18" style="edgeStyle=orthogonalEdgeStyle;orthogonalLoop=1;jettySize=auto;html=1;entryX=0.5;entryY=1;entryDx=0;entryDy=0;startArrow=none;startFill=0;strokeColor=#000000;sketch=1;curved=1;" edge="1" parent="EadVcGzMkbPfr380RvID-1" source="EadVcGzMkbPfr380RvID-20" target="EadVcGzMkbPfr380RvID-12">
          <mxGeometry relative="1" as="geometry" />
        </mxCell>
        <mxCell id="EadVcGzMkbPfr380RvID-19" value="Merkle Proof" style="edgeLabel;html=1;align=center;verticalAlign=middle;resizable=0;points=[];sketch=1;rounded=1;" vertex="1" connectable="0" parent="EadVcGzMkbPfr380RvID-18">
          <mxGeometry x="0.1586" y="1" relative="1" as="geometry">
            <mxPoint as="offset" />
          </mxGeometry>
        </mxCell>
        <mxCell id="EadVcGzMkbPfr380RvID-20" value="" style="whiteSpace=wrap;html=1;fillColor=#d5e8d4;strokeColor=#82b366;sketch=1;rounded=1;" vertex="1" parent="EadVcGzMkbPfr380RvID-1">
          <mxGeometry x="134.5" y="2564" width="39.5" height="35" as="geometry" />
        </mxCell>
        <mxCell id="EadVcGzMkbPfr380RvID-21" style="edgeStyle=orthogonalEdgeStyle;orthogonalLoop=1;jettySize=auto;html=1;entryX=0;entryY=0.5;entryDx=0;entryDy=0;startArrow=none;startFill=0;strokeColor=#FF0000;sketch=1;curved=1;" edge="1" parent="EadVcGzMkbPfr380RvID-1" source="EadVcGzMkbPfr380RvID-25" target="EadVcGzMkbPfr380RvID-14">
          <mxGeometry relative="1" as="geometry" />
        </mxCell>
        <mxCell id="EadVcGzMkbPfr380RvID-22" value="Write Pending&lt;br&gt;Pool" style="edgeLabel;html=1;align=center;verticalAlign=middle;resizable=0;points=[];labelBorderColor=none;labelBackgroundColor=none;sketch=1;rounded=1;" vertex="1" connectable="0" parent="EadVcGzMkbPfr380RvID-21">
          <mxGeometry x="-0.0204" relative="1" as="geometry">
            <mxPoint as="offset" />
          </mxGeometry>
        </mxCell>
        <mxCell id="EadVcGzMkbPfr380RvID-23" style="edgeStyle=orthogonalEdgeStyle;orthogonalLoop=1;jettySize=auto;html=1;entryX=0.5;entryY=1;entryDx=0;entryDy=0;startArrow=classic;startFill=1;strokeColor=#000000;sketch=1;curved=1;" edge="1" parent="EadVcGzMkbPfr380RvID-1" source="EadVcGzMkbPfr380RvID-25" target="EadVcGzMkbPfr380RvID-14">
          <mxGeometry relative="1" as="geometry">
            <Array as="points">
              <mxPoint x="-185" y="2618" />
              <mxPoint x="-19.000000000000004" y="2618" />
            </Array>
          </mxGeometry>
        </mxCell>
        <mxCell id="EadVcGzMkbPfr380RvID-24" value="Application&lt;br&gt;Query" style="edgeLabel;html=1;align=center;verticalAlign=middle;resizable=0;points=[];labelBackgroundColor=none;sketch=1;rounded=1;" vertex="1" connectable="0" parent="EadVcGzMkbPfr380RvID-23">
          <mxGeometry x="-0.0685" y="17" relative="1" as="geometry">
            <mxPoint as="offset" />
          </mxGeometry>
        </mxCell>
        <mxCell id="EadVcGzMkbPfr380RvID-25" value="dapp" style="whiteSpace=wrap;html=1;labelBackgroundColor=none;sketch=1;rounded=1;" vertex="1" parent="EadVcGzMkbPfr380RvID-1">
          <mxGeometry x="-213" y="2476" width="55" height="39" as="geometry" />
        </mxCell>
        <mxCell id="EadVcGzMkbPfr380RvID-26" style="edgeStyle=orthogonalEdgeStyle;orthogonalLoop=1;jettySize=auto;html=1;entryX=0.5;entryY=0;entryDx=0;entryDy=0;startArrow=none;startFill=0;strokeColor=#000000;sketch=1;curved=1;" edge="1" parent="EadVcGzMkbPfr380RvID-1" source="EadVcGzMkbPfr380RvID-28" target="EadVcGzMkbPfr380RvID-29">
          <mxGeometry relative="1" as="geometry" />
        </mxCell>
        <mxCell id="EadVcGzMkbPfr380RvID-27" value="Reword" style="edgeLabel;html=1;align=center;verticalAlign=middle;resizable=0;points=[];sketch=1;rounded=1;" vertex="1" connectable="0" parent="EadVcGzMkbPfr380RvID-26">
          <mxGeometry x="-0.1924" y="-1" relative="1" as="geometry">
            <mxPoint as="offset" />
          </mxGeometry>
        </mxCell>
        <mxCell id="EadVcGzMkbPfr380RvID-28" value="" style="whiteSpace=wrap;html=1;fillColor=#d80073;strokeColor=#A50040;fontColor=#ffffff;sketch=1;rounded=1;" vertex="1" parent="EadVcGzMkbPfr380RvID-1">
          <mxGeometry x="240.5" y="2489" width="39.5" height="35" as="geometry" />
        </mxCell>
        <mxCell id="EadVcGzMkbPfr380RvID-29" value="" style="whiteSpace=wrap;html=1;fillColor=#d5e8d4;strokeColor=#82b366;sketch=1;rounded=1;" vertex="1" parent="EadVcGzMkbPfr380RvID-1">
          <mxGeometry x="215" y="2564" width="39.5" height="35" as="geometry" />
        </mxCell>
        <mxCell id="EadVcGzMkbPfr380RvID-30" value="Main&lt;br&gt;Chain" style="text;html=1;strokeColor=none;fillColor=none;align=center;verticalAlign=middle;whiteSpace=wrap;labelBackgroundColor=none;sketch=1;rounded=1;" vertex="1" parent="EadVcGzMkbPfr380RvID-1">
          <mxGeometry x="316" y="2493" width="104" height="30" as="geometry" />
        </mxCell>
        <mxCell id="EadVcGzMkbPfr380RvID-31" value="Storage Sharding&lt;br&gt;Chain 0" style="text;html=1;strokeColor=none;fillColor=none;align=center;verticalAlign=middle;whiteSpace=wrap;labelBackgroundColor=none;sketch=1;rounded=1;" vertex="1" parent="EadVcGzMkbPfr380RvID-1">
          <mxGeometry x="313" y="2566.5" width="104" height="30" as="geometry" />
        </mxCell>
        <mxCell id="EadVcGzMkbPfr380RvID-32" value="&lt;h1&gt;Phase 2- Verifiable DVM&lt;/h1&gt;" style="text;html=1;strokeColor=none;fillColor=none;spacing=5;spacingTop=-20;whiteSpace=wrap;overflow=hidden;labelBackgroundColor=none;sketch=1;rounded=1;" vertex="1" parent="EadVcGzMkbPfr380RvID-1">
          <mxGeometry x="-213" y="2675" width="378.25" height="53" as="geometry" />
        </mxCell>
        <mxCell id="EadVcGzMkbPfr380RvID-33" value="" style="edgeStyle=orthogonalEdgeStyle;orthogonalLoop=1;jettySize=auto;html=1;startArrow=none;startFill=0;sketch=1;curved=1;" edge="1" parent="EadVcGzMkbPfr380RvID-1" source="EadVcGzMkbPfr380RvID-36" target="EadVcGzMkbPfr380RvID-40">
          <mxGeometry relative="1" as="geometry" />
        </mxCell>
        <mxCell id="EadVcGzMkbPfr380RvID-34" style="edgeStyle=orthogonalEdgeStyle;orthogonalLoop=1;jettySize=auto;html=1;entryX=0.5;entryY=0;entryDx=0;entryDy=0;startArrow=none;startFill=0;strokeColor=#000000;sketch=1;curved=1;" edge="1" parent="EadVcGzMkbPfr380RvID-1" source="EadVcGzMkbPfr380RvID-36" target="EadVcGzMkbPfr380RvID-44">
          <mxGeometry relative="1" as="geometry" />
        </mxCell>
        <mxCell id="EadVcGzMkbPfr380RvID-35" value="Check&lt;br&gt;Pending Pool" style="edgeLabel;html=1;align=center;verticalAlign=middle;resizable=0;points=[];sketch=1;rounded=1;" vertex="1" connectable="0" parent="EadVcGzMkbPfr380RvID-34">
          <mxGeometry x="-0.1111" y="-2" relative="1" as="geometry">
            <mxPoint as="offset" />
          </mxGeometry>
        </mxCell>
        <mxCell id="EadVcGzMkbPfr380RvID-36" value="" style="whiteSpace=wrap;html=1;fillColor=#d80073;strokeColor=#A50040;fontColor=#ffffff;sketch=1;rounded=1;" vertex="1" parent="EadVcGzMkbPfr380RvID-1">
          <mxGeometry x="0.25" y="2753" width="40" height="34" as="geometry" />
        </mxCell>
        <mxCell id="EadVcGzMkbPfr380RvID-37" value="" style="edgeStyle=orthogonalEdgeStyle;orthogonalLoop=1;jettySize=auto;html=1;startArrow=none;startFill=0;sketch=1;curved=1;" edge="1" parent="EadVcGzMkbPfr380RvID-1" source="EadVcGzMkbPfr380RvID-40" target="EadVcGzMkbPfr380RvID-42">
          <mxGeometry relative="1" as="geometry" />
        </mxCell>
        <mxCell id="EadVcGzMkbPfr380RvID-38" style="edgeStyle=orthogonalEdgeStyle;orthogonalLoop=1;jettySize=auto;html=1;entryX=0.5;entryY=0;entryDx=0;entryDy=0;startArrow=none;startFill=0;strokeColor=#000000;sketch=1;curved=1;" edge="1" parent="EadVcGzMkbPfr380RvID-1" source="EadVcGzMkbPfr380RvID-40" target="EadVcGzMkbPfr380RvID-46">
          <mxGeometry relative="1" as="geometry" />
        </mxCell>
        <mxCell id="EadVcGzMkbPfr380RvID-39" value="Elect A Node&lt;br&gt;to Execute Pending Pool" style="edgeLabel;html=1;align=center;verticalAlign=middle;resizable=0;points=[];sketch=1;rounded=1;" vertex="1" connectable="0" parent="EadVcGzMkbPfr380RvID-38">
          <mxGeometry x="-0.29" y="-5" relative="1" as="geometry">
            <mxPoint as="offset" />
          </mxGeometry>
        </mxCell>
        <mxCell id="EadVcGzMkbPfr380RvID-40" value="" style="whiteSpace=wrap;html=1;fillColor=#d80073;strokeColor=#A50040;fontColor=#ffffff;sketch=1;rounded=1;" vertex="1" parent="EadVcGzMkbPfr380RvID-1">
          <mxGeometry x="87.25" y="2754.5" width="42" height="32" as="geometry" />
        </mxCell>
        <mxCell id="EadVcGzMkbPfr380RvID-41" value="" style="edgeStyle=orthogonalEdgeStyle;orthogonalLoop=1;jettySize=auto;html=1;startArrow=none;startFill=0;strokeColor=#000000;sketch=1;curved=1;" edge="1" parent="EadVcGzMkbPfr380RvID-1" source="EadVcGzMkbPfr380RvID-42" target="EadVcGzMkbPfr380RvID-58">
          <mxGeometry relative="1" as="geometry" />
        </mxCell>
        <mxCell id="EadVcGzMkbPfr380RvID-42" value="" style="whiteSpace=wrap;html=1;fillColor=#d80073;strokeColor=#A50040;fontColor=#ffffff;sketch=1;rounded=1;" vertex="1" parent="EadVcGzMkbPfr380RvID-1">
          <mxGeometry x="173.75" y="2753" width="39.5" height="35" as="geometry" />
        </mxCell>
        <mxCell id="EadVcGzMkbPfr380RvID-43" value="" style="edgeStyle=orthogonalEdgeStyle;orthogonalLoop=1;jettySize=auto;html=1;startArrow=none;startFill=0;sketch=1;curved=1;" edge="1" parent="EadVcGzMkbPfr380RvID-1" source="EadVcGzMkbPfr380RvID-44" target="EadVcGzMkbPfr380RvID-46">
          <mxGeometry relative="1" as="geometry" />
        </mxCell>
        <mxCell id="EadVcGzMkbPfr380RvID-44" value="" style="whiteSpace=wrap;html=1;fillColor=#d5e8d4;strokeColor=#82b366;sketch=1;rounded=1;" vertex="1" parent="EadVcGzMkbPfr380RvID-1">
          <mxGeometry x="-33.75" y="2828" width="40" height="34" as="geometry" />
        </mxCell>
        <mxCell id="EadVcGzMkbPfr380RvID-45" value="" style="edgeStyle=orthogonalEdgeStyle;orthogonalLoop=1;jettySize=auto;html=1;startArrow=none;startFill=0;sketch=1;curved=1;" edge="1" parent="EadVcGzMkbPfr380RvID-1" source="EadVcGzMkbPfr380RvID-46" target="EadVcGzMkbPfr380RvID-50">
          <mxGeometry relative="1" as="geometry" />
        </mxCell>
        <mxCell id="EadVcGzMkbPfr380RvID-46" value="" style="whiteSpace=wrap;html=1;fillColor=#d5e8d4;strokeColor=#82b366;sketch=1;rounded=1;" vertex="1" parent="EadVcGzMkbPfr380RvID-1">
          <mxGeometry x="53.25" y="2829.5" width="42" height="32" as="geometry" />
        </mxCell>
        <mxCell id="EadVcGzMkbPfr380RvID-47" value="" style="edgeStyle=orthogonalEdgeStyle;orthogonalLoop=1;jettySize=auto;html=1;startArrow=none;startFill=0;strokeColor=#000000;sketch=1;curved=1;" edge="1" parent="EadVcGzMkbPfr380RvID-1" source="EadVcGzMkbPfr380RvID-50" target="EadVcGzMkbPfr380RvID-59">
          <mxGeometry relative="1" as="geometry" />
        </mxCell>
        <mxCell id="EadVcGzMkbPfr380RvID-48" style="edgeStyle=orthogonalEdgeStyle;orthogonalLoop=1;jettySize=auto;html=1;entryX=0.5;entryY=1;entryDx=0;entryDy=0;startArrow=none;startFill=0;strokeColor=#000000;sketch=1;curved=1;" edge="1" parent="EadVcGzMkbPfr380RvID-1" source="EadVcGzMkbPfr380RvID-50" target="EadVcGzMkbPfr380RvID-42">
          <mxGeometry relative="1" as="geometry" />
        </mxCell>
        <mxCell id="EadVcGzMkbPfr380RvID-49" value="Merkle Proof&lt;br&gt;DVM Proof" style="edgeLabel;html=1;align=center;verticalAlign=middle;resizable=0;points=[];sketch=1;rounded=1;" vertex="1" connectable="0" parent="EadVcGzMkbPfr380RvID-48">
          <mxGeometry x="0.1586" y="1" relative="1" as="geometry">
            <mxPoint as="offset" />
          </mxGeometry>
        </mxCell>
        <mxCell id="EadVcGzMkbPfr380RvID-50" value="" style="whiteSpace=wrap;html=1;fillColor=#d5e8d4;strokeColor=#82b366;sketch=1;rounded=1;" vertex="1" parent="EadVcGzMkbPfr380RvID-1">
          <mxGeometry x="139.75" y="2828" width="39.5" height="35" as="geometry" />
        </mxCell>
        <mxCell id="EadVcGzMkbPfr380RvID-51" style="edgeStyle=orthogonalEdgeStyle;orthogonalLoop=1;jettySize=auto;html=1;entryX=0;entryY=0.5;entryDx=0;entryDy=0;startArrow=none;startFill=0;strokeColor=#FF0000;sketch=1;curved=1;" edge="1" parent="EadVcGzMkbPfr380RvID-1" source="EadVcGzMkbPfr380RvID-55" target="EadVcGzMkbPfr380RvID-44">
          <mxGeometry relative="1" as="geometry" />
        </mxCell>
        <mxCell id="EadVcGzMkbPfr380RvID-52" value="Write Pending&lt;br&gt;Pool" style="edgeLabel;html=1;align=center;verticalAlign=middle;resizable=0;points=[];labelBorderColor=none;labelBackgroundColor=none;sketch=1;rounded=1;" vertex="1" connectable="0" parent="EadVcGzMkbPfr380RvID-51">
          <mxGeometry x="-0.0204" relative="1" as="geometry">
            <mxPoint as="offset" />
          </mxGeometry>
        </mxCell>
        <mxCell id="EadVcGzMkbPfr380RvID-53" style="edgeStyle=orthogonalEdgeStyle;orthogonalLoop=1;jettySize=auto;html=1;entryX=0.5;entryY=1;entryDx=0;entryDy=0;startArrow=classic;startFill=1;strokeColor=#000000;sketch=1;curved=1;" edge="1" parent="EadVcGzMkbPfr380RvID-1" source="EadVcGzMkbPfr380RvID-55" target="EadVcGzMkbPfr380RvID-44">
          <mxGeometry relative="1" as="geometry">
            <Array as="points">
              <mxPoint x="-179.75" y="2882" />
              <mxPoint x="-13.75" y="2882" />
            </Array>
          </mxGeometry>
        </mxCell>
        <mxCell id="EadVcGzMkbPfr380RvID-54" value="Application&lt;br&gt;Query" style="edgeLabel;html=1;align=center;verticalAlign=middle;resizable=0;points=[];labelBackgroundColor=none;sketch=1;rounded=1;" vertex="1" connectable="0" parent="EadVcGzMkbPfr380RvID-53">
          <mxGeometry x="-0.0685" y="17" relative="1" as="geometry">
            <mxPoint as="offset" />
          </mxGeometry>
        </mxCell>
        <mxCell id="EadVcGzMkbPfr380RvID-55" value="dapp" style="whiteSpace=wrap;html=1;labelBackgroundColor=none;sketch=1;rounded=1;" vertex="1" parent="EadVcGzMkbPfr380RvID-1">
          <mxGeometry x="-207.75" y="2740" width="55" height="39" as="geometry" />
        </mxCell>
        <mxCell id="EadVcGzMkbPfr380RvID-56" style="edgeStyle=orthogonalEdgeStyle;orthogonalLoop=1;jettySize=auto;html=1;entryX=0.5;entryY=0;entryDx=0;entryDy=0;startArrow=none;startFill=0;strokeColor=#000000;sketch=1;curved=1;" edge="1" parent="EadVcGzMkbPfr380RvID-1" source="EadVcGzMkbPfr380RvID-58" target="EadVcGzMkbPfr380RvID-59">
          <mxGeometry relative="1" as="geometry" />
        </mxCell>
        <mxCell id="EadVcGzMkbPfr380RvID-57" value="Reword" style="edgeLabel;html=1;align=center;verticalAlign=middle;resizable=0;points=[];sketch=1;rounded=1;" vertex="1" connectable="0" parent="EadVcGzMkbPfr380RvID-56">
          <mxGeometry x="-0.1924" y="-1" relative="1" as="geometry">
            <mxPoint as="offset" />
          </mxGeometry>
        </mxCell>
        <mxCell id="EadVcGzMkbPfr380RvID-58" value="" style="whiteSpace=wrap;html=1;fillColor=#d80073;strokeColor=#A50040;fontColor=#ffffff;sketch=1;rounded=1;" vertex="1" parent="EadVcGzMkbPfr380RvID-1">
          <mxGeometry x="245.75" y="2753" width="39.5" height="35" as="geometry" />
        </mxCell>
        <mxCell id="EadVcGzMkbPfr380RvID-59" value="" style="whiteSpace=wrap;html=1;fillColor=#d5e8d4;strokeColor=#82b366;sketch=1;rounded=1;" vertex="1" parent="EadVcGzMkbPfr380RvID-1">
          <mxGeometry x="220.25" y="2828" width="39.5" height="35" as="geometry" />
        </mxCell>
        <mxCell id="EadVcGzMkbPfr380RvID-60" value="Main&lt;br&gt;Chain" style="text;html=1;strokeColor=none;fillColor=none;align=center;verticalAlign=middle;whiteSpace=wrap;labelBackgroundColor=none;sketch=1;rounded=1;" vertex="1" parent="EadVcGzMkbPfr380RvID-1">
          <mxGeometry x="321.25" y="2757" width="104" height="30" as="geometry" />
        </mxCell>
        <mxCell id="EadVcGzMkbPfr380RvID-61" value="Storage Sharding&lt;br&gt;Chain 0" style="text;html=1;strokeColor=none;fillColor=none;align=center;verticalAlign=middle;whiteSpace=wrap;labelBackgroundColor=none;sketch=1;rounded=1;" vertex="1" parent="EadVcGzMkbPfr380RvID-1">
          <mxGeometry x="330" y="2831.5" width="104" height="30" as="geometry" />
        </mxCell>
        <mxCell id="EadVcGzMkbPfr380RvID-62" value="&lt;h1&gt;Phase 3- Verifiable And Reward SQL Chain&lt;/h1&gt;&lt;p&gt;&lt;br&gt;&lt;/p&gt;" style="text;html=1;strokeColor=none;fillColor=none;spacing=5;spacingTop=-20;whiteSpace=wrap;overflow=hidden;labelBackgroundColor=none;sketch=1;rounded=1;" vertex="1" parent="EadVcGzMkbPfr380RvID-1">
          <mxGeometry x="-207.75" y="2964" width="580.09" height="76" as="geometry" />
        </mxCell>
        <mxCell id="EadVcGzMkbPfr380RvID-63" value="" style="edgeStyle=orthogonalEdgeStyle;orthogonalLoop=1;jettySize=auto;html=1;startArrow=none;startFill=0;sketch=1;curved=1;" edge="1" parent="EadVcGzMkbPfr380RvID-1" source="EadVcGzMkbPfr380RvID-68" target="EadVcGzMkbPfr380RvID-74">
          <mxGeometry relative="1" as="geometry" />
        </mxCell>
        <mxCell id="EadVcGzMkbPfr380RvID-64" style="edgeStyle=orthogonalEdgeStyle;orthogonalLoop=1;jettySize=auto;html=1;entryX=0.5;entryY=0;entryDx=0;entryDy=0;startArrow=none;startFill=0;strokeColor=#000000;sketch=1;curved=1;" edge="1" parent="EadVcGzMkbPfr380RvID-1" source="EadVcGzMkbPfr380RvID-68" target="EadVcGzMkbPfr380RvID-79">
          <mxGeometry relative="1" as="geometry" />
        </mxCell>
        <mxCell id="EadVcGzMkbPfr380RvID-65" value="Check&lt;br&gt;Pending Pool" style="edgeLabel;html=1;align=center;verticalAlign=middle;resizable=0;points=[];sketch=1;rounded=1;" vertex="1" connectable="0" parent="EadVcGzMkbPfr380RvID-64">
          <mxGeometry x="-0.1111" y="-2" relative="1" as="geometry">
            <mxPoint as="offset" />
          </mxGeometry>
        </mxCell>
        <mxCell id="EadVcGzMkbPfr380RvID-66" style="edgeStyle=orthogonalEdgeStyle;orthogonalLoop=1;jettySize=auto;html=1;entryX=0.5;entryY=1;entryDx=0;entryDy=0;startArrow=none;startFill=0;strokeColor=#000000;sketch=1;curved=1;" edge="1" parent="EadVcGzMkbPfr380RvID-1" source="EadVcGzMkbPfr380RvID-68" target="EadVcGzMkbPfr380RvID-103">
          <mxGeometry relative="1" as="geometry" />
        </mxCell>
        <mxCell id="EadVcGzMkbPfr380RvID-67" value="Check&lt;br&gt;Pending Pool" style="edgeLabel;html=1;align=center;verticalAlign=middle;resizable=0;points=[];sketch=1;rounded=1;" vertex="1" connectable="0" parent="EadVcGzMkbPfr380RvID-66">
          <mxGeometry x="0.0117" y="2" relative="1" as="geometry">
            <mxPoint as="offset" />
          </mxGeometry>
        </mxCell>
        <mxCell id="EadVcGzMkbPfr380RvID-68" value="" style="whiteSpace=wrap;html=1;fillColor=#d80073;strokeColor=#A50040;fontColor=#ffffff;sketch=1;rounded=1;" vertex="1" parent="EadVcGzMkbPfr380RvID-1">
          <mxGeometry x="0.24999999999999667" y="3146" width="40" height="34" as="geometry" />
        </mxCell>
        <mxCell id="EadVcGzMkbPfr380RvID-69" value="" style="edgeStyle=orthogonalEdgeStyle;orthogonalLoop=1;jettySize=auto;html=1;startArrow=none;startFill=0;sketch=1;curved=1;" edge="1" parent="EadVcGzMkbPfr380RvID-1" source="EadVcGzMkbPfr380RvID-74" target="EadVcGzMkbPfr380RvID-76">
          <mxGeometry relative="1" as="geometry" />
        </mxCell>
        <mxCell id="EadVcGzMkbPfr380RvID-70" style="edgeStyle=orthogonalEdgeStyle;orthogonalLoop=1;jettySize=auto;html=1;entryX=0.5;entryY=0;entryDx=0;entryDy=0;startArrow=none;startFill=0;strokeColor=#000000;sketch=1;curved=1;" edge="1" parent="EadVcGzMkbPfr380RvID-1" source="EadVcGzMkbPfr380RvID-74" target="EadVcGzMkbPfr380RvID-81">
          <mxGeometry relative="1" as="geometry" />
        </mxCell>
        <mxCell id="EadVcGzMkbPfr380RvID-71" value="Elect A Node&lt;br&gt;to Execute Pending Pool" style="edgeLabel;html=1;align=center;verticalAlign=middle;resizable=0;points=[];sketch=1;rounded=1;" vertex="1" connectable="0" parent="EadVcGzMkbPfr380RvID-70">
          <mxGeometry x="-0.29" y="-5" relative="1" as="geometry">
            <mxPoint as="offset" />
          </mxGeometry>
        </mxCell>
        <mxCell id="EadVcGzMkbPfr380RvID-72" style="edgeStyle=orthogonalEdgeStyle;orthogonalLoop=1;jettySize=auto;html=1;entryX=0.5;entryY=1;entryDx=0;entryDy=0;startArrow=none;startFill=0;strokeColor=#000000;sketch=1;curved=1;" edge="1" parent="EadVcGzMkbPfr380RvID-1" source="EadVcGzMkbPfr380RvID-74" target="EadVcGzMkbPfr380RvID-105">
          <mxGeometry relative="1" as="geometry" />
        </mxCell>
        <mxCell id="EadVcGzMkbPfr380RvID-73" value="Elect Nodes&lt;br&gt;to Execute SQL&amp;nbsp;" style="edgeLabel;html=1;align=center;verticalAlign=middle;resizable=0;points=[];sketch=1;rounded=1;" vertex="1" connectable="0" parent="EadVcGzMkbPfr380RvID-72">
          <mxGeometry x="0.0797" y="-3" relative="1" as="geometry">
            <mxPoint as="offset" />
          </mxGeometry>
        </mxCell>
        <mxCell id="EadVcGzMkbPfr380RvID-74" value="" style="whiteSpace=wrap;html=1;fillColor=#d80073;strokeColor=#A50040;fontColor=#ffffff;sketch=1;rounded=1;" vertex="1" parent="EadVcGzMkbPfr380RvID-1">
          <mxGeometry x="87.25" y="3147.5" width="42" height="32" as="geometry" />
        </mxCell>
        <mxCell id="EadVcGzMkbPfr380RvID-75" value="" style="edgeStyle=orthogonalEdgeStyle;orthogonalLoop=1;jettySize=auto;html=1;startArrow=none;startFill=0;strokeColor=#000000;sketch=1;curved=1;" edge="1" parent="EadVcGzMkbPfr380RvID-1" source="EadVcGzMkbPfr380RvID-76" target="EadVcGzMkbPfr380RvID-97">
          <mxGeometry relative="1" as="geometry" />
        </mxCell>
        <mxCell id="EadVcGzMkbPfr380RvID-76" value="" style="whiteSpace=wrap;html=1;fillColor=#d80073;strokeColor=#A50040;fontColor=#ffffff;sketch=1;rounded=1;" vertex="1" parent="EadVcGzMkbPfr380RvID-1">
          <mxGeometry x="173.75" y="3146" width="39.5" height="35" as="geometry" />
        </mxCell>
        <mxCell id="EadVcGzMkbPfr380RvID-77" value="Storage Shard&lt;br&gt;Chain" style="text;html=1;strokeColor=none;fillColor=none;align=center;verticalAlign=middle;whiteSpace=wrap;labelBackgroundColor=none;sketch=1;rounded=1;" vertex="1" parent="EadVcGzMkbPfr380RvID-1">
          <mxGeometry x="360.24999999999994" y="3226" width="104" height="30" as="geometry" />
        </mxCell>
        <mxCell id="EadVcGzMkbPfr380RvID-78" value="" style="edgeStyle=orthogonalEdgeStyle;orthogonalLoop=1;jettySize=auto;html=1;startArrow=none;startFill=0;sketch=1;curved=1;" edge="1" parent="EadVcGzMkbPfr380RvID-1" source="EadVcGzMkbPfr380RvID-79" target="EadVcGzMkbPfr380RvID-81">
          <mxGeometry relative="1" as="geometry" />
        </mxCell>
        <mxCell id="EadVcGzMkbPfr380RvID-79" value="" style="whiteSpace=wrap;html=1;fillColor=#d5e8d4;strokeColor=#82b366;sketch=1;rounded=1;" vertex="1" parent="EadVcGzMkbPfr380RvID-1">
          <mxGeometry x="-33.75" y="3221" width="40" height="34" as="geometry" />
        </mxCell>
        <mxCell id="EadVcGzMkbPfr380RvID-80" value="" style="edgeStyle=orthogonalEdgeStyle;orthogonalLoop=1;jettySize=auto;html=1;startArrow=none;startFill=0;sketch=1;curved=1;" edge="1" parent="EadVcGzMkbPfr380RvID-1" source="EadVcGzMkbPfr380RvID-81" target="EadVcGzMkbPfr380RvID-85">
          <mxGeometry relative="1" as="geometry" />
        </mxCell>
        <mxCell id="EadVcGzMkbPfr380RvID-81" value="" style="whiteSpace=wrap;html=1;fillColor=#d5e8d4;strokeColor=#82b366;sketch=1;rounded=1;" vertex="1" parent="EadVcGzMkbPfr380RvID-1">
          <mxGeometry x="53.25" y="3222.5" width="42" height="32" as="geometry" />
        </mxCell>
        <mxCell id="EadVcGzMkbPfr380RvID-82" value="" style="edgeStyle=orthogonalEdgeStyle;orthogonalLoop=1;jettySize=auto;html=1;startArrow=none;startFill=0;strokeColor=#000000;sketch=1;curved=1;" edge="1" parent="EadVcGzMkbPfr380RvID-1" source="EadVcGzMkbPfr380RvID-85" target="EadVcGzMkbPfr380RvID-100">
          <mxGeometry relative="1" as="geometry" />
        </mxCell>
        <mxCell id="EadVcGzMkbPfr380RvID-83" style="edgeStyle=orthogonalEdgeStyle;orthogonalLoop=1;jettySize=auto;html=1;entryX=0.5;entryY=1;entryDx=0;entryDy=0;startArrow=none;startFill=0;strokeColor=#000000;sketch=1;curved=1;" edge="1" parent="EadVcGzMkbPfr380RvID-1" source="EadVcGzMkbPfr380RvID-85" target="EadVcGzMkbPfr380RvID-76">
          <mxGeometry relative="1" as="geometry" />
        </mxCell>
        <mxCell id="EadVcGzMkbPfr380RvID-84" value="Merkle Proof" style="edgeLabel;html=1;align=center;verticalAlign=middle;resizable=0;points=[];sketch=1;rounded=1;" vertex="1" connectable="0" parent="EadVcGzMkbPfr380RvID-83">
          <mxGeometry x="0.1586" y="1" relative="1" as="geometry">
            <mxPoint as="offset" />
          </mxGeometry>
        </mxCell>
        <mxCell id="EadVcGzMkbPfr380RvID-85" value="" style="whiteSpace=wrap;html=1;fillColor=#d5e8d4;strokeColor=#82b366;sketch=1;rounded=1;" vertex="1" parent="EadVcGzMkbPfr380RvID-1">
          <mxGeometry x="139.75" y="3221" width="39.5" height="35" as="geometry" />
        </mxCell>
        <mxCell id="EadVcGzMkbPfr380RvID-86" value="Main&lt;br&gt;Chain" style="text;html=1;strokeColor=none;fillColor=none;align=center;verticalAlign=middle;whiteSpace=wrap;labelBackgroundColor=none;sketch=1;rounded=1;" vertex="1" parent="EadVcGzMkbPfr380RvID-1">
          <mxGeometry x="360.24999999999994" y="3141" width="104" height="30" as="geometry" />
        </mxCell>
        <mxCell id="EadVcGzMkbPfr380RvID-87" style="edgeStyle=orthogonalEdgeStyle;orthogonalLoop=1;jettySize=auto;html=1;entryX=0;entryY=0.75;entryDx=0;entryDy=0;startArrow=none;startFill=0;strokeColor=#0000FF;sketch=1;curved=1;" edge="1" parent="EadVcGzMkbPfr380RvID-1" source="EadVcGzMkbPfr380RvID-93" target="EadVcGzMkbPfr380RvID-103">
          <mxGeometry relative="1" as="geometry" />
        </mxCell>
        <mxCell id="EadVcGzMkbPfr380RvID-88" value="SQL&lt;br&gt;Pending Pool" style="edgeLabel;html=1;align=center;verticalAlign=middle;resizable=0;points=[];labelBackgroundColor=none;sketch=1;rounded=1;" vertex="1" connectable="0" parent="EadVcGzMkbPfr380RvID-87">
          <mxGeometry x="-0.1185" relative="1" as="geometry">
            <mxPoint as="offset" />
          </mxGeometry>
        </mxCell>
        <mxCell id="EadVcGzMkbPfr380RvID-89" style="edgeStyle=orthogonalEdgeStyle;orthogonalLoop=1;jettySize=auto;html=1;entryX=0;entryY=0.5;entryDx=0;entryDy=0;startArrow=none;startFill=0;strokeColor=#FF0000;sketch=1;curved=1;" edge="1" parent="EadVcGzMkbPfr380RvID-1" source="EadVcGzMkbPfr380RvID-93" target="EadVcGzMkbPfr380RvID-79">
          <mxGeometry relative="1" as="geometry" />
        </mxCell>
        <mxCell id="EadVcGzMkbPfr380RvID-90" value="Write Pending&lt;br&gt;Pool" style="edgeLabel;html=1;align=center;verticalAlign=middle;resizable=0;points=[];labelBorderColor=none;labelBackgroundColor=none;sketch=1;rounded=1;" vertex="1" connectable="0" parent="EadVcGzMkbPfr380RvID-89">
          <mxGeometry x="-0.0204" relative="1" as="geometry">
            <mxPoint as="offset" />
          </mxGeometry>
        </mxCell>
        <mxCell id="EadVcGzMkbPfr380RvID-91" style="edgeStyle=orthogonalEdgeStyle;orthogonalLoop=1;jettySize=auto;html=1;entryX=0.5;entryY=1;entryDx=0;entryDy=0;startArrow=classic;startFill=1;strokeColor=#000000;sketch=1;curved=1;" edge="1" parent="EadVcGzMkbPfr380RvID-1" source="EadVcGzMkbPfr380RvID-93" target="EadVcGzMkbPfr380RvID-79">
          <mxGeometry relative="1" as="geometry">
            <Array as="points">
              <mxPoint x="-179.75" y="3275" />
              <mxPoint x="-13.750000000000004" y="3275" />
            </Array>
          </mxGeometry>
        </mxCell>
        <mxCell id="EadVcGzMkbPfr380RvID-92" value="Simple Query" style="edgeLabel;html=1;align=center;verticalAlign=middle;resizable=0;points=[];labelBackgroundColor=none;sketch=1;rounded=1;" vertex="1" connectable="0" parent="EadVcGzMkbPfr380RvID-91">
          <mxGeometry x="-0.0685" y="17" relative="1" as="geometry">
            <mxPoint as="offset" />
          </mxGeometry>
        </mxCell>
        <mxCell id="EadVcGzMkbPfr380RvID-93" value="dapp" style="whiteSpace=wrap;html=1;labelBackgroundColor=none;sketch=1;rounded=1;" vertex="1" parent="EadVcGzMkbPfr380RvID-1">
          <mxGeometry x="-207.75" y="3133" width="55" height="39" as="geometry" />
        </mxCell>
        <mxCell id="EadVcGzMkbPfr380RvID-94" style="edgeStyle=orthogonalEdgeStyle;orthogonalLoop=1;jettySize=auto;html=1;entryX=0.5;entryY=0;entryDx=0;entryDy=0;startArrow=none;startFill=0;strokeColor=#000000;sketch=1;curved=1;" edge="1" parent="EadVcGzMkbPfr380RvID-1" source="EadVcGzMkbPfr380RvID-97" target="EadVcGzMkbPfr380RvID-100">
          <mxGeometry relative="1" as="geometry" />
        </mxCell>
        <mxCell id="EadVcGzMkbPfr380RvID-95" value="Reword" style="edgeLabel;html=1;align=center;verticalAlign=middle;resizable=0;points=[];sketch=1;rounded=1;" vertex="1" connectable="0" parent="EadVcGzMkbPfr380RvID-94">
          <mxGeometry x="-0.1924" y="-1" relative="1" as="geometry">
            <mxPoint as="offset" />
          </mxGeometry>
        </mxCell>
        <mxCell id="EadVcGzMkbPfr380RvID-96" value="Reword" style="edgeStyle=orthogonalEdgeStyle;orthogonalLoop=1;jettySize=auto;html=1;entryX=0.5;entryY=1;entryDx=0;entryDy=0;startArrow=none;startFill=0;strokeColor=#000000;sketch=1;curved=1;" edge="1" parent="EadVcGzMkbPfr380RvID-1" source="EadVcGzMkbPfr380RvID-97" target="EadVcGzMkbPfr380RvID-110">
          <mxGeometry relative="1" as="geometry" />
        </mxCell>
        <mxCell id="EadVcGzMkbPfr380RvID-97" value="" style="whiteSpace=wrap;html=1;fillColor=#d80073;strokeColor=#A50040;fontColor=#ffffff;sketch=1;rounded=1;" vertex="1" parent="EadVcGzMkbPfr380RvID-1">
          <mxGeometry x="245.75" y="3146" width="39.5" height="35" as="geometry" />
        </mxCell>
        <mxCell id="EadVcGzMkbPfr380RvID-98" style="edgeStyle=orthogonalEdgeStyle;orthogonalLoop=1;jettySize=auto;html=1;entryX=1;entryY=0.5;entryDx=0;entryDy=0;startArrow=none;startFill=0;strokeColor=#000000;sketch=1;curved=1;" edge="1" parent="EadVcGzMkbPfr380RvID-1" source="EadVcGzMkbPfr380RvID-100" target="EadVcGzMkbPfr380RvID-110">
          <mxGeometry relative="1" as="geometry">
            <Array as="points">
              <mxPoint x="336.24999999999994" y="3239" />
              <mxPoint x="336.24999999999994" y="3077" />
            </Array>
          </mxGeometry>
        </mxCell>
        <mxCell id="EadVcGzMkbPfr380RvID-99" value="Data&amp;nbsp;&lt;br&gt;Provider" style="edgeLabel;html=1;align=center;verticalAlign=middle;resizable=0;points=[];labelBackgroundColor=none;sketch=1;rounded=1;" vertex="1" connectable="0" parent="EadVcGzMkbPfr380RvID-98">
          <mxGeometry x="0.0207" relative="1" as="geometry">
            <mxPoint as="offset" />
          </mxGeometry>
        </mxCell>
        <mxCell id="EadVcGzMkbPfr380RvID-100" value="" style="whiteSpace=wrap;html=1;fillColor=#d5e8d4;strokeColor=#82b366;sketch=1;rounded=1;" vertex="1" parent="EadVcGzMkbPfr380RvID-1">
          <mxGeometry x="220.25" y="3221" width="39.5" height="35" as="geometry" />
        </mxCell>
        <mxCell id="EadVcGzMkbPfr380RvID-101" style="edgeStyle=orthogonalEdgeStyle;orthogonalLoop=1;jettySize=auto;html=1;entryX=0;entryY=0.5;entryDx=0;entryDy=0;startArrow=none;startFill=0;strokeColor=#000000;sketch=1;curved=1;" edge="1" parent="EadVcGzMkbPfr380RvID-1" source="EadVcGzMkbPfr380RvID-103" target="EadVcGzMkbPfr380RvID-105">
          <mxGeometry relative="1" as="geometry" />
        </mxCell>
        <mxCell id="EadVcGzMkbPfr380RvID-102" value="Result" style="edgeStyle=orthogonalEdgeStyle;orthogonalLoop=1;jettySize=auto;html=1;entryX=0.5;entryY=0;entryDx=0;entryDy=0;startArrow=none;startFill=0;strokeColor=#000000;sketch=1;curved=1;" edge="1" parent="EadVcGzMkbPfr380RvID-1" source="EadVcGzMkbPfr380RvID-103" target="EadVcGzMkbPfr380RvID-93">
          <mxGeometry relative="1" as="geometry">
            <Array as="points">
              <mxPoint x="-12.750000000000004" y="3040" />
              <mxPoint x="-179.75" y="3040" />
            </Array>
          </mxGeometry>
        </mxCell>
        <mxCell id="EadVcGzMkbPfr380RvID-103" value="" style="whiteSpace=wrap;html=1;fillColor=#fff2cc;strokeColor=#d6b656;sketch=1;rounded=1;" vertex="1" parent="EadVcGzMkbPfr380RvID-1">
          <mxGeometry x="-32.75" y="3059.17" width="40" height="34" as="geometry" />
        </mxCell>
        <mxCell id="EadVcGzMkbPfr380RvID-104" style="edgeStyle=orthogonalEdgeStyle;orthogonalLoop=1;jettySize=auto;html=1;entryX=0;entryY=0.5;entryDx=0;entryDy=0;startArrow=none;startFill=0;strokeColor=#000000;sketch=1;curved=1;" edge="1" parent="EadVcGzMkbPfr380RvID-1" source="EadVcGzMkbPfr380RvID-105" target="EadVcGzMkbPfr380RvID-109">
          <mxGeometry relative="1" as="geometry" />
        </mxCell>
        <mxCell id="EadVcGzMkbPfr380RvID-105" value="" style="whiteSpace=wrap;html=1;fillColor=#fff2cc;strokeColor=#d6b656;sketch=1;rounded=1;" vertex="1" parent="EadVcGzMkbPfr380RvID-1">
          <mxGeometry x="54.25" y="3060.67" width="42" height="32" as="geometry" />
        </mxCell>
        <mxCell id="EadVcGzMkbPfr380RvID-106" style="edgeStyle=orthogonalEdgeStyle;orthogonalLoop=1;jettySize=auto;html=1;entryX=0;entryY=0.5;entryDx=0;entryDy=0;startArrow=none;startFill=0;strokeColor=#000000;sketch=1;curved=1;" edge="1" parent="EadVcGzMkbPfr380RvID-1" source="EadVcGzMkbPfr380RvID-109" target="EadVcGzMkbPfr380RvID-110">
          <mxGeometry relative="1" as="geometry" />
        </mxCell>
        <mxCell id="EadVcGzMkbPfr380RvID-107" style="edgeStyle=orthogonalEdgeStyle;orthogonalLoop=1;jettySize=auto;html=1;entryX=0.5;entryY=0;entryDx=0;entryDy=0;startArrow=none;startFill=0;strokeColor=#000000;sketch=1;curved=1;" edge="1" parent="EadVcGzMkbPfr380RvID-1" source="EadVcGzMkbPfr380RvID-109" target="EadVcGzMkbPfr380RvID-76">
          <mxGeometry relative="1" as="geometry" />
        </mxCell>
        <mxCell id="EadVcGzMkbPfr380RvID-108" value="ZK Proof" style="edgeLabel;html=1;align=center;verticalAlign=middle;resizable=0;points=[];sketch=1;rounded=1;" vertex="1" connectable="0" parent="EadVcGzMkbPfr380RvID-107">
          <mxGeometry x="-0.1875" y="4" relative="1" as="geometry">
            <mxPoint as="offset" />
          </mxGeometry>
        </mxCell>
        <mxCell id="EadVcGzMkbPfr380RvID-109" value="" style="whiteSpace=wrap;html=1;fillColor=#fff2cc;strokeColor=#d6b656;sketch=1;rounded=1;" vertex="1" parent="EadVcGzMkbPfr380RvID-1">
          <mxGeometry x="140.75" y="3059.17" width="39.5" height="35" as="geometry" />
        </mxCell>
        <mxCell id="EadVcGzMkbPfr380RvID-110" value="" style="whiteSpace=wrap;html=1;fillColor=#fff2cc;strokeColor=#d6b656;sketch=1;rounded=1;" vertex="1" parent="EadVcGzMkbPfr380RvID-1">
          <mxGeometry x="221.25" y="3059.17" width="39.5" height="35" as="geometry" />
        </mxCell>
        <mxCell id="EadVcGzMkbPfr380RvID-111" value="Data Analytics Chain" style="text;html=1;strokeColor=none;fillColor=none;align=center;verticalAlign=middle;whiteSpace=wrap;labelBackgroundColor=none;sketch=1;rounded=1;" vertex="1" parent="EadVcGzMkbPfr380RvID-1">
          <mxGeometry x="347.24999999999994" y="3059.17" width="137" height="30" as="geometry" />
        </mxCell>
        <mxCell id="EadVcGzMkbPfr380RvID-112" value="&lt;font color=&quot;#000000&quot;&gt;dvm&lt;/font&gt;" style="whiteSpace=wrap;html=1;labelBackgroundColor=none;sketch=1;rounded=1;" vertex="1" parent="EadVcGzMkbPfr380RvID-1">
          <mxGeometry x="-5.25" y="2852" width="27" height="21" as="geometry" />
        </mxCell>
        <mxCell id="EadVcGzMkbPfr380RvID-113" value="&lt;font color=&quot;#000000&quot;&gt;dvm&lt;/font&gt;" style="whiteSpace=wrap;html=1;labelBackgroundColor=none;sketch=1;rounded=1;" vertex="1" parent="EadVcGzMkbPfr380RvID-1">
          <mxGeometry x="77.66" y="2854" width="27" height="21" as="geometry" />
        </mxCell>
        <mxCell id="EadVcGzMkbPfr380RvID-114" value="&lt;font color=&quot;#000000&quot;&gt;dvm&lt;/font&gt;" style="whiteSpace=wrap;html=1;labelBackgroundColor=none;sketch=1;rounded=1;" vertex="1" parent="EadVcGzMkbPfr380RvID-1">
          <mxGeometry x="167.75" y="2854" width="27" height="21" as="geometry" />
        </mxCell>
        <mxCell id="EadVcGzMkbPfr380RvID-115" value="&lt;font color=&quot;#000000&quot;&gt;dvm&lt;/font&gt;" style="whiteSpace=wrap;html=1;labelBackgroundColor=none;sketch=1;rounded=1;" vertex="1" parent="EadVcGzMkbPfr380RvID-1">
          <mxGeometry x="239.75" y="2856" width="27" height="21" as="geometry" />
        </mxCell>
        <mxCell id="EadVcGzMkbPfr380RvID-116" value="User" style="shape=umlActor;verticalLabelPosition=bottom;verticalAlign=top;html=1;outlineConnect=0;labelBackgroundColor=none;sketch=1;rounded=1;" vertex="1" parent="EadVcGzMkbPfr380RvID-1">
          <mxGeometry x="570.25" y="2715" width="30" height="60" as="geometry" />
        </mxCell>
        <mxCell id="EadVcGzMkbPfr380RvID-117" style="edgeStyle=orthogonalEdgeStyle;orthogonalLoop=1;jettySize=auto;html=1;startArrow=none;startFill=0;strokeColor=#000000;sketch=1;curved=1;" edge="1" parent="EadVcGzMkbPfr380RvID-1" source="EadVcGzMkbPfr380RvID-120" target="EadVcGzMkbPfr380RvID-116">
          <mxGeometry relative="1" as="geometry" />
        </mxCell>
        <mxCell id="EadVcGzMkbPfr380RvID-118" value="own" style="edgeLabel;html=1;align=center;verticalAlign=middle;resizable=0;points=[];sketch=1;rounded=1;" vertex="1" connectable="0" parent="EadVcGzMkbPfr380RvID-117">
          <mxGeometry x="-0.1729" y="-4" relative="1" as="geometry">
            <mxPoint y="1" as="offset" />
          </mxGeometry>
        </mxCell>
        <mxCell id="EadVcGzMkbPfr380RvID-119" value="" style="edgeStyle=orthogonalEdgeStyle;orthogonalLoop=1;jettySize=auto;html=1;startArrow=none;startFill=0;strokeColor=#000000;sketch=1;curved=1;" edge="1" parent="EadVcGzMkbPfr380RvID-1" source="EadVcGzMkbPfr380RvID-120" target="EadVcGzMkbPfr380RvID-122">
          <mxGeometry relative="1" as="geometry" />
        </mxCell>
        <mxCell id="EadVcGzMkbPfr380RvID-120" value="user&lt;br&gt;data" style="whiteSpace=wrap;html=1;labelBackgroundColor=none;sketch=1;rounded=1;" vertex="1" parent="EadVcGzMkbPfr380RvID-1">
          <mxGeometry x="555.25" y="2841.5" width="60" height="41.5" as="geometry" />
        </mxCell>
        <mxCell id="EadVcGzMkbPfr380RvID-121" style="edgeStyle=orthogonalEdgeStyle;orthogonalLoop=1;jettySize=auto;html=1;entryX=0;entryY=0.5;entryDx=0;entryDy=0;startArrow=none;startFill=0;strokeColor=#000000;sketch=1;curved=1;" edge="1" parent="EadVcGzMkbPfr380RvID-1" source="EadVcGzMkbPfr380RvID-122" target="EadVcGzMkbPfr380RvID-127">
          <mxGeometry relative="1" as="geometry" />
        </mxCell>
        <mxCell id="EadVcGzMkbPfr380RvID-122" value="dvm" style="whiteSpace=wrap;html=1;labelBackgroundColor=none;sketch=1;rounded=1;" vertex="1" parent="EadVcGzMkbPfr380RvID-1">
          <mxGeometry x="670.25" y="2841.5" width="60" height="41.5" as="geometry" />
        </mxCell>
        <mxCell id="EadVcGzMkbPfr380RvID-123" value="use" style="edgeStyle=orthogonalEdgeStyle;orthogonalLoop=1;jettySize=auto;html=1;entryX=0.5;entryY=0.5;entryDx=0;entryDy=0;entryPerimeter=0;startArrow=none;startFill=0;strokeColor=#000000;sketch=1;curved=1;" edge="1" parent="EadVcGzMkbPfr380RvID-1" source="EadVcGzMkbPfr380RvID-124" target="EadVcGzMkbPfr380RvID-116">
          <mxGeometry relative="1" as="geometry" />
        </mxCell>
        <mxCell id="EadVcGzMkbPfr380RvID-124" value="" style="points=[[0,0,0],[0.25,0,0],[0.5,0,0],[0.75,0,0],[1,0,0],[0,1,0],[0.25,1,0],[0.5,1,0],[0.75,1,0],[1,1,0],[0,0.25,0],[0,0.5,0],[0,0.75,0],[1,0.25,0],[1,0.5,0],[1,0.75,0]];points=[[0,0,0],[0.25,0,0],[0.5,0,0],[0.75,0,0],[1,0,0],[0,1,0],[0.25,1,0],[0.5,1,0],[0.75,1,0],[1,1,0],[0,0.25,0],[0,0.5,0],[0,0.75,0],[1,0.25,0],[1,0.5,0],[1,0.75,0]];outlineConnect=0;fontColor=#232F3E;gradientColor=#F34482;gradientDirection=north;fillColor=#BC1356;strokeColor=#ffffff;dashed=0;verticalLabelPosition=bottom;verticalAlign=top;align=center;html=1;fontSize=12;fontStyle=0;aspect=fixed;shape=mxgraph.aws4.resourceIcon;resIcon=mxgraph.aws4.app_wizard;labelBackgroundColor=none;sketch=1;rounded=1;" vertex="1" parent="EadVcGzMkbPfr380RvID-1">
          <mxGeometry x="791.25" y="2720" width="55" height="55" as="geometry" />
        </mxCell>
        <mxCell id="EadVcGzMkbPfr380RvID-125" style="edgeStyle=orthogonalEdgeStyle;orthogonalLoop=1;jettySize=auto;html=1;entryX=0.5;entryY=1;entryDx=0;entryDy=0;entryPerimeter=0;startArrow=none;startFill=0;strokeColor=#000000;sketch=1;curved=1;" edge="1" parent="EadVcGzMkbPfr380RvID-1" source="EadVcGzMkbPfr380RvID-127" target="EadVcGzMkbPfr380RvID-124">
          <mxGeometry relative="1" as="geometry" />
        </mxCell>
        <mxCell id="EadVcGzMkbPfr380RvID-126" value="own" style="edgeLabel;html=1;align=center;verticalAlign=middle;resizable=0;points=[];sketch=1;rounded=1;" vertex="1" connectable="0" parent="EadVcGzMkbPfr380RvID-125">
          <mxGeometry x="0.0075" relative="1" as="geometry">
            <mxPoint x="1" as="offset" />
          </mxGeometry>
        </mxCell>
        <mxCell id="EadVcGzMkbPfr380RvID-127" value="app&lt;br&gt;data" style="whiteSpace=wrap;html=1;labelBackgroundColor=none;sketch=1;rounded=1;" vertex="1" parent="EadVcGzMkbPfr380RvID-1">
          <mxGeometry x="788.75" y="2841.5" width="60" height="41.5" as="geometry" />
        </mxCell>
        <mxCell id="EadVcGzMkbPfr380RvID-128" value="dapp" style="text;html=1;strokeColor=none;fillColor=none;align=center;verticalAlign=middle;whiteSpace=wrap;labelBackgroundColor=default;sketch=1;rounded=1;" vertex="1" parent="EadVcGzMkbPfr380RvID-1">
          <mxGeometry x="786.25" y="2680" width="60" height="30" as="geometry" />
        </mxCell>
        <mxCell id="EadVcGzMkbPfr380RvID-129" value="&lt;h1&gt;Phase 4- Adaptive Sharding&lt;/h1&gt;&lt;p&gt;&lt;br&gt;&lt;/p&gt;" style="text;html=1;strokeColor=none;fillColor=none;spacing=5;spacingTop=-20;whiteSpace=wrap;overflow=hidden;labelBackgroundColor=none;sketch=1;rounded=1;" vertex="1" parent="EadVcGzMkbPfr380RvID-1">
          <mxGeometry x="-203" y="3316" width="580.09" height="76" as="geometry" />
        </mxCell>
        <mxCell id="EadVcGzMkbPfr380RvID-130" value="" style="edgeStyle=orthogonalEdgeStyle;orthogonalLoop=1;jettySize=auto;html=1;startArrow=none;startFill=0;sketch=1;curved=1;" edge="1" parent="EadVcGzMkbPfr380RvID-1" source="EadVcGzMkbPfr380RvID-135" target="EadVcGzMkbPfr380RvID-141">
          <mxGeometry relative="1" as="geometry" />
        </mxCell>
        <mxCell id="EadVcGzMkbPfr380RvID-131" style="edgeStyle=orthogonalEdgeStyle;orthogonalLoop=1;jettySize=auto;html=1;entryX=0.5;entryY=0;entryDx=0;entryDy=0;startArrow=none;startFill=0;strokeColor=#000000;sketch=1;curved=1;" edge="1" parent="EadVcGzMkbPfr380RvID-1" source="EadVcGzMkbPfr380RvID-135" target="EadVcGzMkbPfr380RvID-146">
          <mxGeometry relative="1" as="geometry" />
        </mxCell>
        <mxCell id="EadVcGzMkbPfr380RvID-132" value="Check&lt;br&gt;Pending Pool" style="edgeLabel;html=1;align=center;verticalAlign=middle;resizable=0;points=[];sketch=1;rounded=1;" vertex="1" connectable="0" parent="EadVcGzMkbPfr380RvID-131">
          <mxGeometry x="-0.1111" y="-2" relative="1" as="geometry">
            <mxPoint as="offset" />
          </mxGeometry>
        </mxCell>
        <mxCell id="EadVcGzMkbPfr380RvID-133" style="edgeStyle=orthogonalEdgeStyle;orthogonalLoop=1;jettySize=auto;html=1;entryX=0.5;entryY=1;entryDx=0;entryDy=0;startArrow=none;startFill=0;strokeColor=#000000;sketch=1;curved=1;" edge="1" parent="EadVcGzMkbPfr380RvID-1" source="EadVcGzMkbPfr380RvID-135" target="EadVcGzMkbPfr380RvID-171">
          <mxGeometry relative="1" as="geometry" />
        </mxCell>
        <mxCell id="EadVcGzMkbPfr380RvID-134" value="Check&lt;br&gt;Pending Pool" style="edgeLabel;html=1;align=center;verticalAlign=middle;resizable=0;points=[];sketch=1;rounded=1;" vertex="1" connectable="0" parent="EadVcGzMkbPfr380RvID-133">
          <mxGeometry x="0.0117" y="2" relative="1" as="geometry">
            <mxPoint as="offset" />
          </mxGeometry>
        </mxCell>
        <mxCell id="EadVcGzMkbPfr380RvID-135" value="" style="whiteSpace=wrap;html=1;fillColor=#d80073;strokeColor=#A50040;fontColor=#ffffff;sketch=1;rounded=1;" vertex="1" parent="EadVcGzMkbPfr380RvID-1">
          <mxGeometry x="4.9999999999999964" y="3498" width="40" height="34" as="geometry" />
        </mxCell>
        <mxCell id="EadVcGzMkbPfr380RvID-136" value="" style="edgeStyle=orthogonalEdgeStyle;orthogonalLoop=1;jettySize=auto;html=1;startArrow=none;startFill=0;sketch=1;curved=1;" edge="1" parent="EadVcGzMkbPfr380RvID-1" source="EadVcGzMkbPfr380RvID-141" target="EadVcGzMkbPfr380RvID-143">
          <mxGeometry relative="1" as="geometry" />
        </mxCell>
        <mxCell id="EadVcGzMkbPfr380RvID-137" style="edgeStyle=orthogonalEdgeStyle;orthogonalLoop=1;jettySize=auto;html=1;entryX=0.5;entryY=0;entryDx=0;entryDy=0;startArrow=none;startFill=0;strokeColor=#000000;sketch=1;curved=1;" edge="1" parent="EadVcGzMkbPfr380RvID-1" source="EadVcGzMkbPfr380RvID-141" target="EadVcGzMkbPfr380RvID-148">
          <mxGeometry relative="1" as="geometry" />
        </mxCell>
        <mxCell id="EadVcGzMkbPfr380RvID-138" value="Elect A Node&lt;br&gt;to Execute Pending Pool" style="edgeLabel;html=1;align=center;verticalAlign=middle;resizable=0;points=[];sketch=1;rounded=1;" vertex="1" connectable="0" parent="EadVcGzMkbPfr380RvID-137">
          <mxGeometry x="-0.29" y="-5" relative="1" as="geometry">
            <mxPoint as="offset" />
          </mxGeometry>
        </mxCell>
        <mxCell id="EadVcGzMkbPfr380RvID-139" style="edgeStyle=orthogonalEdgeStyle;orthogonalLoop=1;jettySize=auto;html=1;entryX=0.5;entryY=1;entryDx=0;entryDy=0;startArrow=none;startFill=0;strokeColor=#000000;sketch=1;curved=1;" edge="1" parent="EadVcGzMkbPfr380RvID-1" source="EadVcGzMkbPfr380RvID-141" target="EadVcGzMkbPfr380RvID-173">
          <mxGeometry relative="1" as="geometry" />
        </mxCell>
        <mxCell id="EadVcGzMkbPfr380RvID-140" value="Elect Nodes&lt;br&gt;to Execute SQL&amp;nbsp;" style="edgeLabel;html=1;align=center;verticalAlign=middle;resizable=0;points=[];sketch=1;rounded=1;" vertex="1" connectable="0" parent="EadVcGzMkbPfr380RvID-139">
          <mxGeometry x="0.0797" y="-3" relative="1" as="geometry">
            <mxPoint as="offset" />
          </mxGeometry>
        </mxCell>
        <mxCell id="EadVcGzMkbPfr380RvID-141" value="" style="whiteSpace=wrap;html=1;fillColor=#d80073;strokeColor=#A50040;fontColor=#ffffff;sketch=1;rounded=1;" vertex="1" parent="EadVcGzMkbPfr380RvID-1">
          <mxGeometry x="92" y="3499.5" width="42" height="32" as="geometry" />
        </mxCell>
        <mxCell id="EadVcGzMkbPfr380RvID-142" value="" style="edgeStyle=orthogonalEdgeStyle;orthogonalLoop=1;jettySize=auto;html=1;startArrow=none;startFill=0;strokeColor=#000000;sketch=1;curved=1;" edge="1" parent="EadVcGzMkbPfr380RvID-1" source="EadVcGzMkbPfr380RvID-143" target="EadVcGzMkbPfr380RvID-164">
          <mxGeometry relative="1" as="geometry" />
        </mxCell>
        <mxCell id="EadVcGzMkbPfr380RvID-143" value="" style="whiteSpace=wrap;html=1;fillColor=#d80073;strokeColor=#A50040;fontColor=#ffffff;sketch=1;rounded=1;" vertex="1" parent="EadVcGzMkbPfr380RvID-1">
          <mxGeometry x="178.5" y="3498" width="39.5" height="35" as="geometry" />
        </mxCell>
        <mxCell id="EadVcGzMkbPfr380RvID-144" value="Storage Shard&lt;br&gt;Chains" style="text;html=1;strokeColor=none;fillColor=none;align=center;verticalAlign=middle;whiteSpace=wrap;labelBackgroundColor=none;sketch=1;rounded=1;" vertex="1" parent="EadVcGzMkbPfr380RvID-1">
          <mxGeometry x="360.24999999999994" y="3643" width="104" height="30" as="geometry" />
        </mxCell>
        <mxCell id="EadVcGzMkbPfr380RvID-145" value="" style="edgeStyle=orthogonalEdgeStyle;orthogonalLoop=1;jettySize=auto;html=1;startArrow=none;startFill=0;sketch=1;curved=1;" edge="1" parent="EadVcGzMkbPfr380RvID-1" source="EadVcGzMkbPfr380RvID-146" target="EadVcGzMkbPfr380RvID-148">
          <mxGeometry relative="1" as="geometry" />
        </mxCell>
        <mxCell id="EadVcGzMkbPfr380RvID-146" value="" style="whiteSpace=wrap;html=1;fillColor=#d5e8d4;strokeColor=#82b366;sketch=1;rounded=1;" vertex="1" parent="EadVcGzMkbPfr380RvID-1">
          <mxGeometry x="-29" y="3573" width="40" height="34" as="geometry" />
        </mxCell>
        <mxCell id="EadVcGzMkbPfr380RvID-147" value="" style="edgeStyle=orthogonalEdgeStyle;orthogonalLoop=1;jettySize=auto;html=1;startArrow=none;startFill=0;sketch=1;curved=1;" edge="1" parent="EadVcGzMkbPfr380RvID-1" source="EadVcGzMkbPfr380RvID-148" target="EadVcGzMkbPfr380RvID-152">
          <mxGeometry relative="1" as="geometry" />
        </mxCell>
        <mxCell id="EadVcGzMkbPfr380RvID-148" value="" style="whiteSpace=wrap;html=1;fillColor=#d5e8d4;strokeColor=#82b366;sketch=1;rounded=1;" vertex="1" parent="EadVcGzMkbPfr380RvID-1">
          <mxGeometry x="58" y="3574.5" width="42" height="32" as="geometry" />
        </mxCell>
        <mxCell id="EadVcGzMkbPfr380RvID-149" value="" style="edgeStyle=orthogonalEdgeStyle;orthogonalLoop=1;jettySize=auto;html=1;startArrow=none;startFill=0;strokeColor=#000000;sketch=1;curved=1;" edge="1" parent="EadVcGzMkbPfr380RvID-1" source="EadVcGzMkbPfr380RvID-152" target="EadVcGzMkbPfr380RvID-168">
          <mxGeometry relative="1" as="geometry" />
        </mxCell>
        <mxCell id="EadVcGzMkbPfr380RvID-150" style="edgeStyle=orthogonalEdgeStyle;orthogonalLoop=1;jettySize=auto;html=1;entryX=0.5;entryY=1;entryDx=0;entryDy=0;startArrow=none;startFill=0;strokeColor=#000000;sketch=1;curved=1;" edge="1" parent="EadVcGzMkbPfr380RvID-1" source="EadVcGzMkbPfr380RvID-152" target="EadVcGzMkbPfr380RvID-143">
          <mxGeometry relative="1" as="geometry" />
        </mxCell>
        <mxCell id="EadVcGzMkbPfr380RvID-151" value="Merkle Proof" style="edgeLabel;html=1;align=center;verticalAlign=middle;resizable=0;points=[];sketch=1;rounded=1;" vertex="1" connectable="0" parent="EadVcGzMkbPfr380RvID-150">
          <mxGeometry x="0.1586" y="1" relative="1" as="geometry">
            <mxPoint as="offset" />
          </mxGeometry>
        </mxCell>
        <mxCell id="EadVcGzMkbPfr380RvID-152" value="" style="whiteSpace=wrap;html=1;fillColor=#d5e8d4;strokeColor=#82b366;sketch=1;rounded=1;" vertex="1" parent="EadVcGzMkbPfr380RvID-1">
          <mxGeometry x="144.5" y="3573" width="39.5" height="35" as="geometry" />
        </mxCell>
        <mxCell id="EadVcGzMkbPfr380RvID-153" value="Main&lt;br&gt;Chain" style="text;html=1;strokeColor=none;fillColor=none;align=center;verticalAlign=middle;whiteSpace=wrap;labelBackgroundColor=none;sketch=1;rounded=1;" vertex="1" parent="EadVcGzMkbPfr380RvID-1">
          <mxGeometry x="364.99999999999994" y="3493" width="104" height="30" as="geometry" />
        </mxCell>
        <mxCell id="EadVcGzMkbPfr380RvID-154" style="edgeStyle=orthogonalEdgeStyle;orthogonalLoop=1;jettySize=auto;html=1;entryX=0;entryY=0.75;entryDx=0;entryDy=0;startArrow=none;startFill=0;strokeColor=#0000FF;sketch=1;curved=1;" edge="1" parent="EadVcGzMkbPfr380RvID-1" source="EadVcGzMkbPfr380RvID-160" target="EadVcGzMkbPfr380RvID-171">
          <mxGeometry relative="1" as="geometry" />
        </mxCell>
        <mxCell id="EadVcGzMkbPfr380RvID-155" value="SQL&lt;br&gt;Pending Pool" style="edgeLabel;html=1;align=center;verticalAlign=middle;resizable=0;points=[];labelBackgroundColor=none;sketch=1;rounded=1;" vertex="1" connectable="0" parent="EadVcGzMkbPfr380RvID-154">
          <mxGeometry x="-0.1185" relative="1" as="geometry">
            <mxPoint as="offset" />
          </mxGeometry>
        </mxCell>
        <mxCell id="EadVcGzMkbPfr380RvID-156" style="edgeStyle=orthogonalEdgeStyle;orthogonalLoop=1;jettySize=auto;html=1;entryX=0;entryY=0.5;entryDx=0;entryDy=0;startArrow=none;startFill=0;strokeColor=#FF0000;sketch=1;curved=1;" edge="1" parent="EadVcGzMkbPfr380RvID-1" source="EadVcGzMkbPfr380RvID-160" target="EadVcGzMkbPfr380RvID-146">
          <mxGeometry relative="1" as="geometry" />
        </mxCell>
        <mxCell id="EadVcGzMkbPfr380RvID-157" value="Write Pending&lt;br&gt;Pool" style="edgeLabel;html=1;align=center;verticalAlign=middle;resizable=0;points=[];labelBorderColor=none;labelBackgroundColor=none;sketch=1;rounded=1;" vertex="1" connectable="0" parent="EadVcGzMkbPfr380RvID-156">
          <mxGeometry x="-0.0204" relative="1" as="geometry">
            <mxPoint as="offset" />
          </mxGeometry>
        </mxCell>
        <mxCell id="EadVcGzMkbPfr380RvID-158" style="edgeStyle=orthogonalEdgeStyle;orthogonalLoop=1;jettySize=auto;html=1;entryX=0.5;entryY=1;entryDx=0;entryDy=0;startArrow=classic;startFill=1;strokeColor=#000000;sketch=1;curved=1;" edge="1" parent="EadVcGzMkbPfr380RvID-1" source="EadVcGzMkbPfr380RvID-160" target="EadVcGzMkbPfr380RvID-146">
          <mxGeometry relative="1" as="geometry">
            <Array as="points">
              <mxPoint x="-175" y="3627" />
              <mxPoint x="-9.000000000000004" y="3627" />
            </Array>
          </mxGeometry>
        </mxCell>
        <mxCell id="EadVcGzMkbPfr380RvID-159" value="Application&lt;br&gt;Query" style="edgeLabel;html=1;align=center;verticalAlign=middle;resizable=0;points=[];labelBackgroundColor=none;sketch=1;rounded=1;" vertex="1" connectable="0" parent="EadVcGzMkbPfr380RvID-158">
          <mxGeometry x="-0.0685" y="17" relative="1" as="geometry">
            <mxPoint as="offset" />
          </mxGeometry>
        </mxCell>
        <mxCell id="EadVcGzMkbPfr380RvID-160" value="dapp" style="whiteSpace=wrap;html=1;labelBackgroundColor=none;sketch=1;rounded=1;" vertex="1" parent="EadVcGzMkbPfr380RvID-1">
          <mxGeometry x="-203" y="3485" width="55" height="39" as="geometry" />
        </mxCell>
        <mxCell id="EadVcGzMkbPfr380RvID-161" style="edgeStyle=orthogonalEdgeStyle;orthogonalLoop=1;jettySize=auto;html=1;entryX=0.5;entryY=0;entryDx=0;entryDy=0;startArrow=none;startFill=0;strokeColor=#000000;sketch=1;curved=1;" edge="1" parent="EadVcGzMkbPfr380RvID-1" source="EadVcGzMkbPfr380RvID-164" target="EadVcGzMkbPfr380RvID-168">
          <mxGeometry relative="1" as="geometry" />
        </mxCell>
        <mxCell id="EadVcGzMkbPfr380RvID-162" value="Reword" style="edgeLabel;html=1;align=center;verticalAlign=middle;resizable=0;points=[];sketch=1;rounded=1;" vertex="1" connectable="0" parent="EadVcGzMkbPfr380RvID-161">
          <mxGeometry x="-0.1924" y="-1" relative="1" as="geometry">
            <mxPoint as="offset" />
          </mxGeometry>
        </mxCell>
        <mxCell id="EadVcGzMkbPfr380RvID-163" value="Reword" style="edgeStyle=orthogonalEdgeStyle;orthogonalLoop=1;jettySize=auto;html=1;entryX=0.5;entryY=1;entryDx=0;entryDy=0;startArrow=none;startFill=0;strokeColor=#000000;sketch=1;curved=1;" edge="1" parent="EadVcGzMkbPfr380RvID-1" source="EadVcGzMkbPfr380RvID-164" target="EadVcGzMkbPfr380RvID-178">
          <mxGeometry relative="1" as="geometry" />
        </mxCell>
        <mxCell id="EadVcGzMkbPfr380RvID-164" value="" style="whiteSpace=wrap;html=1;fillColor=#d80073;strokeColor=#A50040;fontColor=#ffffff;sketch=1;rounded=1;" vertex="1" parent="EadVcGzMkbPfr380RvID-1">
          <mxGeometry x="250.5" y="3498" width="39.5" height="35" as="geometry" />
        </mxCell>
        <mxCell id="EadVcGzMkbPfr380RvID-165" style="edgeStyle=orthogonalEdgeStyle;orthogonalLoop=1;jettySize=auto;html=1;entryX=1;entryY=0.5;entryDx=0;entryDy=0;startArrow=none;startFill=0;strokeColor=#000000;sketch=1;curved=1;" edge="1" parent="EadVcGzMkbPfr380RvID-1" source="EadVcGzMkbPfr380RvID-168" target="EadVcGzMkbPfr380RvID-178">
          <mxGeometry relative="1" as="geometry">
            <Array as="points">
              <mxPoint x="340.99999999999994" y="3591" />
              <mxPoint x="340.99999999999994" y="3429" />
            </Array>
          </mxGeometry>
        </mxCell>
        <mxCell id="EadVcGzMkbPfr380RvID-166" value="Data&amp;nbsp;&lt;br&gt;Provider" style="edgeLabel;html=1;align=center;verticalAlign=middle;resizable=0;points=[];labelBackgroundColor=none;sketch=1;rounded=1;" vertex="1" connectable="0" parent="EadVcGzMkbPfr380RvID-165">
          <mxGeometry x="0.0207" relative="1" as="geometry">
            <mxPoint as="offset" />
          </mxGeometry>
        </mxCell>
        <mxCell id="EadVcGzMkbPfr380RvID-167" style="edgeStyle=orthogonalEdgeStyle;orthogonalLoop=1;jettySize=auto;html=1;startArrow=none;startFill=0;strokeColor=#000000;dashed=1;sketch=1;curved=1;" edge="1" parent="EadVcGzMkbPfr380RvID-1" source="EadVcGzMkbPfr380RvID-168" target="EadVcGzMkbPfr380RvID-187">
          <mxGeometry relative="1" as="geometry" />
        </mxCell>
        <mxCell id="EadVcGzMkbPfr380RvID-168" value="" style="whiteSpace=wrap;html=1;fillColor=#d5e8d4;strokeColor=#82b366;sketch=1;rounded=1;" vertex="1" parent="EadVcGzMkbPfr380RvID-1">
          <mxGeometry x="225" y="3573" width="39.5" height="35" as="geometry" />
        </mxCell>
        <mxCell id="EadVcGzMkbPfr380RvID-169" style="edgeStyle=orthogonalEdgeStyle;orthogonalLoop=1;jettySize=auto;html=1;entryX=0;entryY=0.5;entryDx=0;entryDy=0;startArrow=none;startFill=0;strokeColor=#000000;sketch=1;curved=1;" edge="1" parent="EadVcGzMkbPfr380RvID-1" source="EadVcGzMkbPfr380RvID-171" target="EadVcGzMkbPfr380RvID-173">
          <mxGeometry relative="1" as="geometry" />
        </mxCell>
        <mxCell id="EadVcGzMkbPfr380RvID-170" value="Result" style="edgeStyle=orthogonalEdgeStyle;orthogonalLoop=1;jettySize=auto;html=1;entryX=0.5;entryY=0;entryDx=0;entryDy=0;startArrow=none;startFill=0;strokeColor=#000000;sketch=1;curved=1;" edge="1" parent="EadVcGzMkbPfr380RvID-1" source="EadVcGzMkbPfr380RvID-171" target="EadVcGzMkbPfr380RvID-160">
          <mxGeometry relative="1" as="geometry">
            <Array as="points">
              <mxPoint x="-8.000000000000004" y="3392" />
              <mxPoint x="-175" y="3392" />
            </Array>
          </mxGeometry>
        </mxCell>
        <mxCell id="EadVcGzMkbPfr380RvID-171" value="" style="whiteSpace=wrap;html=1;fillColor=#fff2cc;strokeColor=#d6b656;sketch=1;rounded=1;" vertex="1" parent="EadVcGzMkbPfr380RvID-1">
          <mxGeometry x="-28" y="3411.17" width="40" height="34" as="geometry" />
        </mxCell>
        <mxCell id="EadVcGzMkbPfr380RvID-172" style="edgeStyle=orthogonalEdgeStyle;orthogonalLoop=1;jettySize=auto;html=1;entryX=0;entryY=0.5;entryDx=0;entryDy=0;startArrow=none;startFill=0;strokeColor=#000000;sketch=1;curved=1;" edge="1" parent="EadVcGzMkbPfr380RvID-1" source="EadVcGzMkbPfr380RvID-173" target="EadVcGzMkbPfr380RvID-177">
          <mxGeometry relative="1" as="geometry" />
        </mxCell>
        <mxCell id="EadVcGzMkbPfr380RvID-173" value="" style="whiteSpace=wrap;html=1;fillColor=#fff2cc;strokeColor=#d6b656;sketch=1;rounded=1;" vertex="1" parent="EadVcGzMkbPfr380RvID-1">
          <mxGeometry x="59" y="3412.67" width="42" height="32" as="geometry" />
        </mxCell>
        <mxCell id="EadVcGzMkbPfr380RvID-174" style="edgeStyle=orthogonalEdgeStyle;orthogonalLoop=1;jettySize=auto;html=1;entryX=0;entryY=0.5;entryDx=0;entryDy=0;startArrow=none;startFill=0;strokeColor=#000000;sketch=1;curved=1;" edge="1" parent="EadVcGzMkbPfr380RvID-1" source="EadVcGzMkbPfr380RvID-177" target="EadVcGzMkbPfr380RvID-178">
          <mxGeometry relative="1" as="geometry" />
        </mxCell>
        <mxCell id="EadVcGzMkbPfr380RvID-175" style="edgeStyle=orthogonalEdgeStyle;orthogonalLoop=1;jettySize=auto;html=1;entryX=0.5;entryY=0;entryDx=0;entryDy=0;startArrow=none;startFill=0;strokeColor=#000000;sketch=1;curved=1;" edge="1" parent="EadVcGzMkbPfr380RvID-1" source="EadVcGzMkbPfr380RvID-177" target="EadVcGzMkbPfr380RvID-143">
          <mxGeometry relative="1" as="geometry" />
        </mxCell>
        <mxCell id="EadVcGzMkbPfr380RvID-176" value="ZK Proof" style="edgeLabel;html=1;align=center;verticalAlign=middle;resizable=0;points=[];sketch=1;rounded=1;" vertex="1" connectable="0" parent="EadVcGzMkbPfr380RvID-175">
          <mxGeometry x="-0.1875" y="4" relative="1" as="geometry">
            <mxPoint as="offset" />
          </mxGeometry>
        </mxCell>
        <mxCell id="EadVcGzMkbPfr380RvID-177" value="" style="whiteSpace=wrap;html=1;fillColor=#fff2cc;strokeColor=#d6b656;sketch=1;rounded=1;" vertex="1" parent="EadVcGzMkbPfr380RvID-1">
          <mxGeometry x="145.5" y="3411.17" width="39.5" height="35" as="geometry" />
        </mxCell>
        <mxCell id="EadVcGzMkbPfr380RvID-178" value="" style="whiteSpace=wrap;html=1;fillColor=#fff2cc;strokeColor=#d6b656;sketch=1;rounded=1;" vertex="1" parent="EadVcGzMkbPfr380RvID-1">
          <mxGeometry x="226" y="3411.17" width="39.5" height="35" as="geometry" />
        </mxCell>
        <mxCell id="EadVcGzMkbPfr380RvID-179" value="Data Analytics Chain" style="text;html=1;strokeColor=none;fillColor=none;align=center;verticalAlign=middle;whiteSpace=wrap;labelBackgroundColor=none;sketch=1;rounded=1;" vertex="1" parent="EadVcGzMkbPfr380RvID-1">
          <mxGeometry x="351.99999999999994" y="3411.17" width="137" height="30" as="geometry" />
        </mxCell>
        <mxCell id="EadVcGzMkbPfr380RvID-180" value="" style="edgeStyle=orthogonalEdgeStyle;orthogonalLoop=1;jettySize=auto;html=1;startArrow=none;startFill=0;sketch=1;curved=1;" edge="1" parent="EadVcGzMkbPfr380RvID-1" source="EadVcGzMkbPfr380RvID-181" target="EadVcGzMkbPfr380RvID-183">
          <mxGeometry relative="1" as="geometry" />
        </mxCell>
        <mxCell id="EadVcGzMkbPfr380RvID-181" value="" style="whiteSpace=wrap;html=1;fillColor=#d5e8d4;strokeColor=#82b366;sketch=1;rounded=1;" vertex="1" parent="EadVcGzMkbPfr380RvID-1">
          <mxGeometry x="-29" y="3692" width="40" height="34" as="geometry" />
        </mxCell>
        <mxCell id="EadVcGzMkbPfr380RvID-182" value="" style="edgeStyle=orthogonalEdgeStyle;orthogonalLoop=1;jettySize=auto;html=1;startArrow=none;startFill=0;sketch=1;curved=1;" edge="1" parent="EadVcGzMkbPfr380RvID-1" source="EadVcGzMkbPfr380RvID-183" target="EadVcGzMkbPfr380RvID-185">
          <mxGeometry relative="1" as="geometry" />
        </mxCell>
        <mxCell id="EadVcGzMkbPfr380RvID-183" value="" style="whiteSpace=wrap;html=1;fillColor=#d5e8d4;strokeColor=#82b366;sketch=1;rounded=1;" vertex="1" parent="EadVcGzMkbPfr380RvID-1">
          <mxGeometry x="58" y="3693.5" width="42" height="32" as="geometry" />
        </mxCell>
        <mxCell id="EadVcGzMkbPfr380RvID-184" value="" style="edgeStyle=orthogonalEdgeStyle;orthogonalLoop=1;jettySize=auto;html=1;startArrow=none;startFill=0;strokeColor=#000000;sketch=1;curved=1;" edge="1" parent="EadVcGzMkbPfr380RvID-1" source="EadVcGzMkbPfr380RvID-185" target="EadVcGzMkbPfr380RvID-187">
          <mxGeometry relative="1" as="geometry" />
        </mxCell>
        <mxCell id="EadVcGzMkbPfr380RvID-185" value="" style="whiteSpace=wrap;html=1;fillColor=#d5e8d4;strokeColor=#82b366;sketch=1;rounded=1;" vertex="1" parent="EadVcGzMkbPfr380RvID-1">
          <mxGeometry x="144.5" y="3692" width="39.5" height="35" as="geometry" />
        </mxCell>
        <mxCell id="EadVcGzMkbPfr380RvID-186" style="edgeStyle=orthogonalEdgeStyle;orthogonalLoop=1;jettySize=auto;html=1;startArrow=none;startFill=0;strokeColor=#000000;sketch=1;curved=1;" edge="1" parent="EadVcGzMkbPfr380RvID-1" source="EadVcGzMkbPfr380RvID-187">
          <mxGeometry relative="1" as="geometry">
            <mxPoint x="342" y="3530" as="targetPoint" />
          </mxGeometry>
        </mxCell>
        <mxCell id="EadVcGzMkbPfr380RvID-187" value="" style="whiteSpace=wrap;html=1;fillColor=#d5e8d4;strokeColor=#82b366;sketch=1;rounded=1;" vertex="1" parent="EadVcGzMkbPfr380RvID-1">
          <mxGeometry x="225" y="3692" width="39.5" height="35" as="geometry" />
        </mxCell>
        <mxCell id="EadVcGzMkbPfr380RvID-188" value="1..N" style="text;html=1;strokeColor=none;fillColor=none;align=center;verticalAlign=middle;whiteSpace=wrap;labelBackgroundColor=default;sketch=1;rounded=1;" vertex="1" parent="EadVcGzMkbPfr380RvID-1">
          <mxGeometry x="175" y="3631" width="60" height="30" as="geometry" />
        </mxCell>
        <mxCell id="EadVcGzMkbPfr380RvID-189" value="&lt;font color=&quot;#000000&quot;&gt;dvm&lt;/font&gt;" style="whiteSpace=wrap;html=1;labelBackgroundColor=none;sketch=1;rounded=1;" vertex="1" parent="EadVcGzMkbPfr380RvID-1">
          <mxGeometry x="-17.5" y="3243" width="27" height="21" as="geometry" />
        </mxCell>
        <mxCell id="EadVcGzMkbPfr380RvID-190" value="&lt;font color=&quot;#000000&quot;&gt;dvm&lt;/font&gt;" style="whiteSpace=wrap;html=1;labelBackgroundColor=none;sketch=1;rounded=1;" vertex="1" parent="EadVcGzMkbPfr380RvID-1">
          <mxGeometry x="65.41" y="3245" width="27" height="21" as="geometry" />
        </mxCell>
        <mxCell id="EadVcGzMkbPfr380RvID-191" value="&lt;font color=&quot;#000000&quot;&gt;dvm&lt;/font&gt;" style="whiteSpace=wrap;html=1;labelBackgroundColor=none;sketch=1;rounded=1;" vertex="1" parent="EadVcGzMkbPfr380RvID-1">
          <mxGeometry x="155.5" y="3245" width="27" height="21" as="geometry" />
        </mxCell>
        <mxCell id="EadVcGzMkbPfr380RvID-192" value="&lt;font color=&quot;#000000&quot;&gt;dvm&lt;/font&gt;" style="whiteSpace=wrap;html=1;labelBackgroundColor=none;sketch=1;rounded=1;" vertex="1" parent="EadVcGzMkbPfr380RvID-1">
          <mxGeometry x="227.5" y="3247" width="27" height="21" as="geometry" />
        </mxCell>
        <mxCell id="EadVcGzMkbPfr380RvID-193" value="&lt;font color=&quot;#000000&quot;&gt;dvm&lt;/font&gt;" style="whiteSpace=wrap;html=1;labelBackgroundColor=none;sketch=1;rounded=1;" vertex="1" parent="EadVcGzMkbPfr380RvID-1">
          <mxGeometry x="-6.5" y="3595" width="27" height="21" as="geometry" />
        </mxCell>
        <mxCell id="EadVcGzMkbPfr380RvID-194" value="&lt;font color=&quot;#000000&quot;&gt;dvm&lt;/font&gt;" style="whiteSpace=wrap;html=1;labelBackgroundColor=none;sketch=1;rounded=1;" vertex="1" parent="EadVcGzMkbPfr380RvID-1">
          <mxGeometry x="76.41" y="3597" width="27" height="21" as="geometry" />
        </mxCell>
        <mxCell id="EadVcGzMkbPfr380RvID-195" value="&lt;font color=&quot;#000000&quot;&gt;dvm&lt;/font&gt;" style="whiteSpace=wrap;html=1;labelBackgroundColor=none;sketch=1;rounded=1;" vertex="1" parent="EadVcGzMkbPfr380RvID-1">
          <mxGeometry x="166.5" y="3597" width="27" height="21" as="geometry" />
        </mxCell>
        <mxCell id="EadVcGzMkbPfr380RvID-196" value="&lt;font color=&quot;#000000&quot;&gt;dvm&lt;/font&gt;" style="whiteSpace=wrap;html=1;labelBackgroundColor=none;sketch=1;rounded=1;" vertex="1" parent="EadVcGzMkbPfr380RvID-1">
          <mxGeometry x="238.5" y="3599" width="27" height="21" as="geometry" />
        </mxCell>
        <mxCell id="EadVcGzMkbPfr380RvID-197" value="&lt;font color=&quot;#000000&quot;&gt;dvm&lt;/font&gt;" style="whiteSpace=wrap;html=1;labelBackgroundColor=none;sketch=1;rounded=1;" vertex="1" parent="EadVcGzMkbPfr380RvID-1">
          <mxGeometry x="-7.5" y="3716" width="27" height="21" as="geometry" />
        </mxCell>
        <mxCell id="EadVcGzMkbPfr380RvID-198" value="&lt;font color=&quot;#000000&quot;&gt;dvm&lt;/font&gt;" style="whiteSpace=wrap;html=1;labelBackgroundColor=none;sketch=1;rounded=1;" vertex="1" parent="EadVcGzMkbPfr380RvID-1">
          <mxGeometry x="75.41" y="3718" width="27" height="21" as="geometry" />
        </mxCell>
        <mxCell id="EadVcGzMkbPfr380RvID-199" value="&lt;font color=&quot;#000000&quot;&gt;dvm&lt;/font&gt;" style="whiteSpace=wrap;html=1;labelBackgroundColor=none;sketch=1;rounded=1;" vertex="1" parent="EadVcGzMkbPfr380RvID-1">
          <mxGeometry x="165.5" y="3718" width="27" height="21" as="geometry" />
        </mxCell>
        <mxCell id="EadVcGzMkbPfr380RvID-200" value="&lt;font color=&quot;#000000&quot;&gt;dvm&lt;/font&gt;" style="whiteSpace=wrap;html=1;labelBackgroundColor=none;sketch=1;rounded=1;" vertex="1" parent="EadVcGzMkbPfr380RvID-1">
          <mxGeometry x="237.5" y="3720" width="27" height="21" as="geometry" />
        </mxCell>
        <mxCell id="EadVcGzMkbPfr380RvID-201" value="&lt;h1&gt;Phase 0- MVP-Storage and DVM Demo&lt;/h1&gt;&lt;p&gt;&lt;br&gt;&lt;/p&gt;" style="text;html=1;strokeColor=none;fillColor=none;spacing=5;spacingTop=-20;whiteSpace=wrap;overflow=hidden;labelBackgroundColor=none;sketch=1;rounded=1;" vertex="1" parent="EadVcGzMkbPfr380RvID-1">
          <mxGeometry x="-219.5" y="2088" width="451" height="57" as="geometry" />
        </mxCell>
        <mxCell id="EadVcGzMkbPfr380RvID-202" style="edgeStyle=orthogonalEdgeStyle;orthogonalLoop=1;jettySize=auto;html=1;entryX=0.5;entryY=0;entryDx=0;entryDy=0;startArrow=none;startFill=0;strokeColor=#000000;sketch=1;curved=1;" edge="1" parent="EadVcGzMkbPfr380RvID-1" source="EadVcGzMkbPfr380RvID-203" target="EadVcGzMkbPfr380RvID-206">
          <mxGeometry relative="1" as="geometry" />
        </mxCell>
        <mxCell id="EadVcGzMkbPfr380RvID-203" value="" style="whiteSpace=wrap;html=1;fillColor=#d80073;strokeColor=#A50040;fontColor=#ffffff;sketch=1;rounded=1;" vertex="1" parent="EadVcGzMkbPfr380RvID-1">
          <mxGeometry x="-8.000000000000004" y="2191" width="40" height="34" as="geometry" />
        </mxCell>
        <mxCell id="EadVcGzMkbPfr380RvID-204" style="edgeStyle=orthogonalEdgeStyle;curved=1;rounded=0;sketch=1;orthogonalLoop=1;jettySize=auto;html=1;entryX=0.75;entryY=1;entryDx=0;entryDy=0;startArrow=none;startFill=0;dashed=1;" edge="1" parent="EadVcGzMkbPfr380RvID-1" source="EadVcGzMkbPfr380RvID-206" target="EadVcGzMkbPfr380RvID-210">
          <mxGeometry relative="1" as="geometry" />
        </mxCell>
        <mxCell id="EadVcGzMkbPfr380RvID-205" value="Query" style="edgeLabel;html=1;align=center;verticalAlign=middle;resizable=0;points=[];" vertex="1" connectable="0" parent="EadVcGzMkbPfr380RvID-204">
          <mxGeometry x="-0.2954" y="-10" relative="1" as="geometry">
            <mxPoint as="offset" />
          </mxGeometry>
        </mxCell>
        <mxCell id="EadVcGzMkbPfr380RvID-206" value="" style="whiteSpace=wrap;html=1;fillColor=#d5e8d4;strokeColor=#82b366;sketch=1;rounded=1;" vertex="1" parent="EadVcGzMkbPfr380RvID-1">
          <mxGeometry x="-42" y="2266" width="40" height="34" as="geometry" />
        </mxCell>
        <mxCell id="EadVcGzMkbPfr380RvID-207" style="edgeStyle=orthogonalEdgeStyle;orthogonalLoop=1;jettySize=auto;html=1;entryX=0;entryY=0.25;entryDx=0;entryDy=0;startArrow=none;startFill=0;strokeColor=#FF0000;sketch=1;curved=1;" edge="1" parent="EadVcGzMkbPfr380RvID-1" source="EadVcGzMkbPfr380RvID-210" target="EadVcGzMkbPfr380RvID-203">
          <mxGeometry relative="1" as="geometry" />
        </mxCell>
        <mxCell id="EadVcGzMkbPfr380RvID-208" value="Write Pending&lt;br&gt;Pool" style="edgeLabel;html=1;align=center;verticalAlign=middle;resizable=0;points=[];labelBorderColor=none;labelBackgroundColor=none;sketch=1;rounded=1;" vertex="1" connectable="0" parent="EadVcGzMkbPfr380RvID-207">
          <mxGeometry x="-0.0204" relative="1" as="geometry">
            <mxPoint as="offset" />
          </mxGeometry>
        </mxCell>
        <mxCell id="EadVcGzMkbPfr380RvID-209" value="deploy&lt;br&gt;contract" style="edgeStyle=orthogonalEdgeStyle;curved=1;rounded=0;sketch=1;orthogonalLoop=1;jettySize=auto;html=1;entryX=0;entryY=0.25;entryDx=0;entryDy=0;dashed=1;startArrow=none;startFill=0;" edge="1" parent="EadVcGzMkbPfr380RvID-1" source="EadVcGzMkbPfr380RvID-210" target="EadVcGzMkbPfr380RvID-206">
          <mxGeometry relative="1" as="geometry" />
        </mxCell>
        <mxCell id="EadVcGzMkbPfr380RvID-210" value="dapp" style="whiteSpace=wrap;html=1;labelBackgroundColor=none;sketch=1;rounded=1;" vertex="1" parent="EadVcGzMkbPfr380RvID-1">
          <mxGeometry x="-216" y="2178" width="55" height="39" as="geometry" />
        </mxCell>
        <mxCell id="EadVcGzMkbPfr380RvID-211" value="Main&lt;br&gt;Chain" style="text;html=1;strokeColor=none;fillColor=none;align=center;verticalAlign=middle;whiteSpace=wrap;labelBackgroundColor=none;sketch=1;rounded=1;" vertex="1" parent="EadVcGzMkbPfr380RvID-1">
          <mxGeometry x="302" y="2182.5" width="104" height="30" as="geometry" />
        </mxCell>
        <mxCell id="EadVcGzMkbPfr380RvID-212" value="Storage Sharding&lt;br&gt;Chain 0" style="text;html=1;strokeColor=none;fillColor=none;align=center;verticalAlign=middle;whiteSpace=wrap;labelBackgroundColor=none;sketch=1;rounded=1;" vertex="1" parent="EadVcGzMkbPfr380RvID-1">
          <mxGeometry x="298" y="2268" width="104" height="30" as="geometry" />
        </mxCell>
        <mxCell id="EadVcGzMkbPfr380RvID-213" value="&lt;font color=&quot;#000000&quot;&gt;dvm&lt;/font&gt;" style="whiteSpace=wrap;html=1;labelBackgroundColor=none;sketch=1;rounded=1;" vertex="1" parent="EadVcGzMkbPfr380RvID-1">
          <mxGeometry x="-16" y="2289" width="27" height="21" as="geometry" />
        </mxCell>
        <mxCell id="EadVcGzMkbPfr380RvID-214" value="&lt;font color=&quot;#000000&quot;&gt;dvm&lt;/font&gt;" style="whiteSpace=wrap;html=1;labelBackgroundColor=none;sketch=1;rounded=1;" vertex="1" parent="EadVcGzMkbPfr380RvID-1">
          <mxGeometry x="-13" y="2590" width="27" height="21" as="geometry" />
        </mxCell>
        <mxCell id="EadVcGzMkbPfr380RvID-215" value="&lt;font color=&quot;#000000&quot;&gt;dvm&lt;/font&gt;" style="whiteSpace=wrap;html=1;labelBackgroundColor=none;sketch=1;rounded=1;" vertex="1" parent="EadVcGzMkbPfr380RvID-1">
          <mxGeometry x="76.41" y="2590" width="27" height="21" as="geometry" />
        </mxCell>
        <mxCell id="EadVcGzMkbPfr380RvID-216" value="&lt;font color=&quot;#000000&quot;&gt;dvm&lt;/font&gt;" style="whiteSpace=wrap;html=1;labelBackgroundColor=none;sketch=1;rounded=1;" vertex="1" parent="EadVcGzMkbPfr380RvID-1">
          <mxGeometry x="160" y="2592" width="27" height="21" as="geometry" />
        </mxCell>
        <mxCell id="EadVcGzMkbPfr380RvID-217" value="&lt;font color=&quot;#000000&quot;&gt;dvm&lt;/font&gt;" style="whiteSpace=wrap;html=1;labelBackgroundColor=none;sketch=1;rounded=1;" vertex="1" parent="EadVcGzMkbPfr380RvID-1">
          <mxGeometry x="237.5" y="2590" width="27" height="21" as="geometry" />
        </mxCell>
      </root>
    </mxGraphModel>
  </diagram>
  <diagram id="a2rSO6bU8NqWxnIUHmbI" name="kvstore-app">
    <mxGraphModel dx="2283" dy="964" grid="1" gridSize="10" guides="1" tooltips="1" connect="1" arrows="1" fold="1" page="1" pageScale="1" pageWidth="827" pageHeight="1169" math="0" shadow="0">
      <root>
        <mxCell id="0" />
        <mxCell id="1" parent="0" />
        <mxCell id="efQAPJANVIz_bRApaLmA-2" value="" style="rounded=1;whiteSpace=wrap;html=1;" parent="1" vertex="1">
          <mxGeometry x="220" y="170" width="1280" height="400" as="geometry" />
        </mxCell>
        <mxCell id="-Wd4A4NJhHl60U6Q9wvx-10" value="ABCI Impl" style="rounded=0;whiteSpace=wrap;html=1;verticalAlign=top;" vertex="1" parent="1">
          <mxGeometry x="707" y="200" width="693" height="350" as="geometry" />
        </mxCell>
        <mxCell id="-Wd4A4NJhHl60U6Q9wvx-1" value="SDK" style="rounded=0;whiteSpace=wrap;html=1;verticalAlign=top;" vertex="1" parent="1">
          <mxGeometry x="-88" y="285" width="252" height="195" as="geometry" />
        </mxCell>
        <mxCell id="-Wd4A4NJhHl60U6Q9wvx-7" value="Mutation SDK" style="rounded=1;whiteSpace=wrap;html=1;" vertex="1" parent="1">
          <mxGeometry x="-63" y="325" width="145" height="60" as="geometry" />
        </mxCell>
        <mxCell id="-Wd4A4NJhHl60U6Q9wvx-3" value="AuthStore (Merk tree)" style="rounded=0;whiteSpace=wrap;html=1;verticalAlign=top;" vertex="1" parent="1">
          <mxGeometry x="1008" y="330" width="332" height="127" as="geometry" />
        </mxCell>
        <mxCell id="efQAPJANVIz_bRApaLmA-4" value="Tendermint" style="rounded=1;whiteSpace=wrap;html=1;" parent="1" vertex="1">
          <mxGeometry x="220" y="290" width="170" height="120" as="geometry" />
        </mxCell>
        <mxCell id="efQAPJANVIz_bRApaLmA-3" value="RPC/HTTP" style="ellipse;whiteSpace=wrap;html=1;aspect=fixed;" parent="1" vertex="1">
          <mxGeometry x="190" y="322.5" width="65" height="65" as="geometry" />
        </mxCell>
        <mxCell id="efQAPJANVIz_bRApaLmA-7" value="Consensus Connection" style="rounded=0;whiteSpace=wrap;html=1;" parent="1" vertex="1">
          <mxGeometry x="470" y="320" width="150" height="60" as="geometry" />
        </mxCell>
        <mxCell id="efQAPJANVIz_bRApaLmA-8" value="Mempool Connection" style="rounded=0;whiteSpace=wrap;html=1;" parent="1" vertex="1">
          <mxGeometry x="470" y="230" width="150" height="60" as="geometry" />
        </mxCell>
        <mxCell id="efQAPJANVIz_bRApaLmA-9" value="Query Connection" style="rounded=0;whiteSpace=wrap;html=1;" parent="1" vertex="1">
          <mxGeometry x="470" y="407.5" width="150" height="60" as="geometry" />
        </mxCell>
        <mxCell id="efQAPJANVIz_bRApaLmA-12" value="" style="endArrow=classic;html=1;rounded=0;" parent="1" source="efQAPJANVIz_bRApaLmA-4" target="efQAPJANVIz_bRApaLmA-8" edge="1">
          <mxGeometry width="50" height="50" relative="1" as="geometry">
            <mxPoint x="320" y="510" as="sourcePoint" />
            <mxPoint x="370" y="460" as="targetPoint" />
          </mxGeometry>
        </mxCell>
        <mxCell id="efQAPJANVIz_bRApaLmA-18" value="CheckTX" style="edgeLabel;html=1;align=center;verticalAlign=middle;resizable=0;points=[];" parent="efQAPJANVIz_bRApaLmA-12" vertex="1" connectable="0">
          <mxGeometry x="-0.2" y="-2" relative="1" as="geometry">
            <mxPoint x="7" y="1" as="offset" />
          </mxGeometry>
        </mxCell>
        <mxCell id="efQAPJANVIz_bRApaLmA-15" value="DeliverTX" style="endArrow=classic;html=1;rounded=0;entryX=0;entryY=0.75;entryDx=0;entryDy=0;" parent="1" source="efQAPJANVIz_bRApaLmA-4" target="efQAPJANVIz_bRApaLmA-7" edge="1">
          <mxGeometry width="50" height="50" relative="1" as="geometry">
            <mxPoint x="380" y="510" as="sourcePoint" />
            <mxPoint x="430" y="460" as="targetPoint" />
          </mxGeometry>
        </mxCell>
        <mxCell id="efQAPJANVIz_bRApaLmA-16" value="" style="endArrow=classic;html=1;rounded=0;" parent="1" source="efQAPJANVIz_bRApaLmA-4" target="efQAPJANVIz_bRApaLmA-9" edge="1">
          <mxGeometry width="50" height="50" relative="1" as="geometry">
            <mxPoint x="390" y="500" as="sourcePoint" />
            <mxPoint x="440" y="450" as="targetPoint" />
          </mxGeometry>
        </mxCell>
        <mxCell id="efQAPJANVIz_bRApaLmA-17" value="QueryTX" style="edgeLabel;html=1;align=center;verticalAlign=middle;resizable=0;points=[];" parent="efQAPJANVIz_bRApaLmA-16" vertex="1" connectable="0">
          <mxGeometry x="0.2817" relative="1" as="geometry">
            <mxPoint x="1" as="offset" />
          </mxGeometry>
        </mxCell>
        <mxCell id="efQAPJANVIz_bRApaLmA-21" value="check_tx()" style="rounded=0;whiteSpace=wrap;html=1;" parent="1" vertex="1">
          <mxGeometry x="737.5" y="245" width="145" height="40" as="geometry" />
        </mxCell>
        <mxCell id="efQAPJANVIz_bRApaLmA-22" value="deliver_tx()" style="rounded=0;whiteSpace=wrap;html=1;" parent="1" vertex="1">
          <mxGeometry x="737.5" y="320" width="140" height="40" as="geometry" />
        </mxCell>
        <mxCell id="efQAPJANVIz_bRApaLmA-25" value="KVStore" style="shape=cylinder3;whiteSpace=wrap;html=1;boundedLbl=1;backgroundOutline=1;size=15;" parent="1" vertex="1">
          <mxGeometry x="1150" y="364.25" width="58" height="71.5" as="geometry" />
        </mxCell>
        <mxCell id="efQAPJANVIz_bRApaLmA-26" value="AccountStore" style="shape=cylinder3;whiteSpace=wrap;html=1;boundedLbl=1;backgroundOutline=1;size=15;" parent="1" vertex="1">
          <mxGeometry x="1241" y="360" width="89" height="80" as="geometry" />
        </mxCell>
        <mxCell id="efQAPJANVIz_bRApaLmA-30" value="commit&amp;nbsp;&lt;br&gt;app_hash" style="rounded=0;whiteSpace=wrap;html=1;" parent="1" vertex="1">
          <mxGeometry x="740" y="387.5" width="140" height="40" as="geometry" />
        </mxCell>
        <mxCell id="efQAPJANVIz_bRApaLmA-40" value="" style="endArrow=classic;startArrow=classic;html=1;rounded=0;" parent="1" source="efQAPJANVIz_bRApaLmA-7" target="efQAPJANVIz_bRApaLmA-22" edge="1">
          <mxGeometry width="50" height="50" relative="1" as="geometry">
            <mxPoint x="660" y="620" as="sourcePoint" />
            <mxPoint x="710" y="570" as="targetPoint" />
          </mxGeometry>
        </mxCell>
        <mxCell id="efQAPJANVIz_bRApaLmA-41" value="" style="endArrow=classic;startArrow=classic;html=1;rounded=0;" parent="1" source="efQAPJANVIz_bRApaLmA-7" target="efQAPJANVIz_bRApaLmA-30" edge="1">
          <mxGeometry width="50" height="50" relative="1" as="geometry">
            <mxPoint x="690" y="650" as="sourcePoint" />
            <mxPoint x="740" y="600" as="targetPoint" />
          </mxGeometry>
        </mxCell>
        <mxCell id="efQAPJANVIz_bRApaLmA-44" value="" style="endArrow=classic;startArrow=classic;html=1;rounded=0;" parent="1" source="efQAPJANVIz_bRApaLmA-8" target="efQAPJANVIz_bRApaLmA-21" edge="1">
          <mxGeometry width="50" height="50" relative="1" as="geometry">
            <mxPoint x="640" y="610" as="sourcePoint" />
            <mxPoint x="690" y="560" as="targetPoint" />
          </mxGeometry>
        </mxCell>
        <mxCell id="efQAPJANVIz_bRApaLmA-45" value="query()" style="rounded=0;whiteSpace=wrap;html=1;" parent="1" vertex="1">
          <mxGeometry x="740" y="450" width="140" height="40" as="geometry" />
        </mxCell>
        <mxCell id="efQAPJANVIz_bRApaLmA-46" value="" style="endArrow=classic;startArrow=classic;html=1;rounded=0;" parent="1" source="efQAPJANVIz_bRApaLmA-9" target="efQAPJANVIz_bRApaLmA-45" edge="1">
          <mxGeometry width="50" height="50" relative="1" as="geometry">
            <mxPoint x="630" y="530" as="sourcePoint" />
            <mxPoint x="680" y="480" as="targetPoint" />
          </mxGeometry>
        </mxCell>
        <mxCell id="-Wd4A4NJhHl60U6Q9wvx-2" value="BillStore" style="shape=cylinder3;whiteSpace=wrap;html=1;boundedLbl=1;backgroundOutline=1;size=15;" vertex="1" parent="1">
          <mxGeometry x="1060" y="360" width="60" height="80" as="geometry" />
        </mxCell>
        <mxCell id="-Wd4A4NJhHl60U6Q9wvx-4" value="" style="endArrow=classic;startArrow=classic;html=1;rounded=0;" edge="1" parent="1" source="efQAPJANVIz_bRApaLmA-45" target="-Wd4A4NJhHl60U6Q9wvx-3">
          <mxGeometry width="50" height="50" relative="1" as="geometry">
            <mxPoint x="947" y="489" as="sourcePoint" />
            <mxPoint x="997" y="439" as="targetPoint" />
          </mxGeometry>
        </mxCell>
        <mxCell id="-Wd4A4NJhHl60U6Q9wvx-5" value="" style="endArrow=classic;startArrow=classic;html=1;rounded=0;" edge="1" parent="1" source="efQAPJANVIz_bRApaLmA-30" target="-Wd4A4NJhHl60U6Q9wvx-3">
          <mxGeometry width="50" height="50" relative="1" as="geometry">
            <mxPoint x="919" y="395" as="sourcePoint" />
            <mxPoint x="969" y="345" as="targetPoint" />
          </mxGeometry>
        </mxCell>
        <mxCell id="-Wd4A4NJhHl60U6Q9wvx-6" value="" style="endArrow=classic;startArrow=classic;html=1;rounded=0;" edge="1" parent="1" source="efQAPJANVIz_bRApaLmA-22" target="-Wd4A4NJhHl60U6Q9wvx-3">
          <mxGeometry width="50" height="50" relative="1" as="geometry">
            <mxPoint x="925" y="362" as="sourcePoint" />
            <mxPoint x="975" y="312" as="targetPoint" />
          </mxGeometry>
        </mxCell>
        <mxCell id="-Wd4A4NJhHl60U6Q9wvx-8" value="Store SDK" style="rounded=1;whiteSpace=wrap;html=1;fillColor=#f8cecc;strokeColor=#b85450;" vertex="1" parent="1">
          <mxGeometry x="-63" y="402" width="150" height="60" as="geometry" />
        </mxCell>
        <mxCell id="-Wd4A4NJhHl60U6Q9wvx-9" value="" style="endArrow=classic;startArrow=classic;html=1;rounded=0;exitX=1;exitY=0.5;exitDx=0;exitDy=0;" edge="1" parent="1" source="-Wd4A4NJhHl60U6Q9wvx-8" target="efQAPJANVIz_bRApaLmA-3">
          <mxGeometry width="50" height="50" relative="1" as="geometry">
            <mxPoint x="173" y="463" as="sourcePoint" />
            <mxPoint x="223" y="413" as="targetPoint" />
          </mxGeometry>
        </mxCell>
        <mxCell id="-Wd4A4NJhHl60U6Q9wvx-11" value="CMD" style="rounded=0;whiteSpace=wrap;html=1;" vertex="1" parent="1">
          <mxGeometry x="-320" y="352.5" width="120" height="60" as="geometry" />
        </mxCell>
        <mxCell id="-Wd4A4NJhHl60U6Q9wvx-12" value="" style="endArrow=classic;startArrow=classic;html=1;rounded=0;" edge="1" parent="1" source="-Wd4A4NJhHl60U6Q9wvx-11" target="-Wd4A4NJhHl60U6Q9wvx-1">
          <mxGeometry width="50" height="50" relative="1" as="geometry">
            <mxPoint x="-150" y="420" as="sourcePoint" />
            <mxPoint x="-100" y="370" as="targetPoint" />
          </mxGeometry>
        </mxCell>
        <mxCell id="-Wd4A4NJhHl60U6Q9wvx-13" value="" style="endArrow=classic;startArrow=classic;html=1;rounded=0;exitX=1;exitY=0.5;exitDx=0;exitDy=0;" edge="1" parent="1" source="-Wd4A4NJhHl60U6Q9wvx-7" target="efQAPJANVIz_bRApaLmA-3">
          <mxGeometry width="50" height="50" relative="1" as="geometry">
            <mxPoint x="200" y="600" as="sourcePoint" />
            <mxPoint x="250" y="550" as="targetPoint" />
          </mxGeometry>
        </mxCell>
      </root>
    </mxGraphModel>
  </diagram>
  <diagram id="bvd17djz2d5RVC9g-t2D" name="QuerySession">
    <mxGraphModel dx="1092" dy="723" grid="1" gridSize="10" guides="1" tooltips="1" connect="1" arrows="1" fold="1" page="1" pageScale="1" pageWidth="827" pageHeight="1169" math="0" shadow="0">
      <root>
        <mxCell id="0" />
        <mxCell id="1" parent="0" />
        <mxCell id="O6sJprwOW00TKQZwm1h4-1" value="Actor" style="shape=umlActor;verticalLabelPosition=bottom;verticalAlign=top;html=1;outlineConnect=0;" parent="1" vertex="1">
          <mxGeometry x="90" y="270" width="30" height="60" as="geometry" />
        </mxCell>
        <mxCell id="O6sJprwOW00TKQZwm1h4-5" value="StoreSDK" style="rounded=1;whiteSpace=wrap;html=1;verticalAlign=top;" parent="1" vertex="1">
          <mxGeometry x="390" y="240" width="190" height="120" as="geometry" />
        </mxCell>
        <mxCell id="O6sJprwOW00TKQZwm1h4-7" value="Query" style="rounded=0;whiteSpace=wrap;html=1;" parent="1" vertex="1">
          <mxGeometry x="200" y="240" width="130" height="40" as="geometry" />
        </mxCell>
        <mxCell id="O6sJprwOW00TKQZwm1h4-10" value="RestartSession" style="rounded=0;whiteSpace=wrap;html=1;" parent="1" vertex="1">
          <mxGeometry x="200" y="300" width="130" height="40" as="geometry" />
        </mxCell>
        <mxCell id="O6sJprwOW00TKQZwm1h4-12" value="QuerySessionManager" style="rounded=0;whiteSpace=wrap;html=1;" parent="1" vertex="1">
          <mxGeometry x="420" y="270" width="130" height="60" as="geometry" />
        </mxCell>
        <mxCell id="O6sJprwOW00TKQZwm1h4-13" value="" style="endArrow=classic;html=1;rounded=0;exitX=1;exitY=0.5;exitDx=0;exitDy=0;" parent="1" source="O6sJprwOW00TKQZwm1h4-12" edge="1">
          <mxGeometry width="50" height="50" relative="1" as="geometry">
            <mxPoint x="600" y="330" as="sourcePoint" />
            <mxPoint x="640" y="300" as="targetPoint" />
          </mxGeometry>
        </mxCell>
        <mxCell id="O6sJprwOW00TKQZwm1h4-14" value="QuerySession" style="rounded=0;whiteSpace=wrap;html=1;" parent="1" vertex="1">
          <mxGeometry x="640" y="270" width="120" height="60" as="geometry" />
        </mxCell>
        <mxCell id="O6sJprwOW00TKQZwm1h4-15" value="Signed Transaction" style="rounded=0;whiteSpace=wrap;html=1;" parent="1" vertex="1">
          <mxGeometry x="800" y="270" width="120" height="60" as="geometry" />
        </mxCell>
        <mxCell id="O6sJprwOW00TKQZwm1h4-16" value="MemPool" style="rounded=0;whiteSpace=wrap;html=1;" parent="1" vertex="1">
          <mxGeometry x="960" y="270" width="120" height="60" as="geometry" />
        </mxCell>
        <mxCell id="O6sJprwOW00TKQZwm1h4-17" value="" style="endArrow=classic;html=1;rounded=0;entryX=0;entryY=0.5;entryDx=0;entryDy=0;" parent="1" source="O6sJprwOW00TKQZwm1h4-14" target="O6sJprwOW00TKQZwm1h4-15" edge="1">
          <mxGeometry width="50" height="50" relative="1" as="geometry">
            <mxPoint x="750" y="390" as="sourcePoint" />
            <mxPoint x="800" y="340" as="targetPoint" />
          </mxGeometry>
        </mxCell>
        <mxCell id="O6sJprwOW00TKQZwm1h4-18" value="" style="endArrow=classic;html=1;rounded=0;exitX=1;exitY=0.5;exitDx=0;exitDy=0;entryX=0;entryY=0.5;entryDx=0;entryDy=0;" parent="1" source="O6sJprwOW00TKQZwm1h4-15" target="O6sJprwOW00TKQZwm1h4-16" edge="1">
          <mxGeometry width="50" height="50" relative="1" as="geometry">
            <mxPoint x="980" y="430" as="sourcePoint" />
            <mxPoint x="1030" y="380" as="targetPoint" />
          </mxGeometry>
        </mxCell>
        <mxCell id="O6sJprwOW00TKQZwm1h4-19" value="" style="endArrow=classic;html=1;rounded=0;" parent="1" source="O6sJprwOW00TKQZwm1h4-1" target="O6sJprwOW00TKQZwm1h4-7" edge="1">
          <mxGeometry width="50" height="50" relative="1" as="geometry">
            <mxPoint x="90" y="480" as="sourcePoint" />
            <mxPoint x="140" y="430" as="targetPoint" />
          </mxGeometry>
        </mxCell>
        <mxCell id="O6sJprwOW00TKQZwm1h4-20" value="" style="endArrow=classic;html=1;rounded=0;" parent="1" source="O6sJprwOW00TKQZwm1h4-1" target="O6sJprwOW00TKQZwm1h4-10" edge="1">
          <mxGeometry width="50" height="50" relative="1" as="geometry">
            <mxPoint x="160" y="490" as="sourcePoint" />
            <mxPoint x="210" y="440" as="targetPoint" />
          </mxGeometry>
        </mxCell>
        <mxCell id="O6sJprwOW00TKQZwm1h4-21" value="" style="endArrow=classic;html=1;rounded=0;exitX=1;exitY=0.5;exitDx=0;exitDy=0;" parent="1" source="O6sJprwOW00TKQZwm1h4-10" target="O6sJprwOW00TKQZwm1h4-5" edge="1">
          <mxGeometry width="50" height="50" relative="1" as="geometry">
            <mxPoint x="340" y="440" as="sourcePoint" />
            <mxPoint x="390" y="390" as="targetPoint" />
          </mxGeometry>
        </mxCell>
        <mxCell id="O6sJprwOW00TKQZwm1h4-22" value="" style="endArrow=classic;html=1;rounded=0;" parent="1" source="O6sJprwOW00TKQZwm1h4-7" target="O6sJprwOW00TKQZwm1h4-5" edge="1">
          <mxGeometry width="50" height="50" relative="1" as="geometry">
            <mxPoint x="380" y="450" as="sourcePoint" />
            <mxPoint x="430" y="400" as="targetPoint" />
          </mxGeometry>
        </mxCell>
        <mxCell id="AwqJYShP68_Ub-fTXS_M-1" value="SDK" style="shape=umlLifeline;perimeter=lifelinePerimeter;whiteSpace=wrap;html=1;container=1;collapsible=0;recursiveResize=0;outlineConnect=0;" vertex="1" parent="1">
          <mxGeometry x="280" y="520" width="100" height="1240" as="geometry" />
        </mxCell>
        <mxCell id="AwqJYShP68_Ub-fTXS_M-2" value="Node" style="shape=umlLifeline;perimeter=lifelinePerimeter;whiteSpace=wrap;html=1;container=1;collapsible=0;recursiveResize=0;outlineConnect=0;" vertex="1" parent="1">
          <mxGeometry x="480" y="520" width="100" height="1220" as="geometry" />
        </mxCell>
        <mxCell id="AwqJYShP68_Ub-fTXS_M-6" value="&lt;span style=&quot;font-size: 14px; background-color: rgb(255, 255, 255);&quot;&gt;1.1 Verify Account, Balance, Credit&lt;br&gt;1.2 Initialize Session Manager&lt;br&gt;1.3 Add session into SessionPool&lt;br&gt;&lt;/span&gt;" style="html=1;points=[];perimeter=orthogonalPerimeter;align=left;" vertex="1" parent="AwqJYShP68_Ub-fTXS_M-2">
          <mxGeometry x="45" y="90" width="10" height="150" as="geometry" />
        </mxCell>
        <mxCell id="AwqJYShP68_Ub-fTXS_M-14" value="3.1 Verify Account, Balance, Credit, and Session status&lt;br&gt;3.2 Query data&lt;br&gt;3.3 Compute proof if neccesary&lt;br&gt;&lt;div style=&quot;&quot;&gt;&lt;span style=&quot;background-color: initial;&quot;&gt;3.3 Accumulate session query stat&lt;/span&gt;&lt;/div&gt;" style="html=1;points=[];perimeter=orthogonalPerimeter;fontSize=14;align=left;" vertex="1" parent="AwqJYShP68_Ub-fTXS_M-2">
          <mxGeometry x="45" y="350" width="10" height="110" as="geometry" />
        </mxCell>
        <mxCell id="AwqJYShP68_Ub-fTXS_M-25" value="5.1 Verify Account, Balance, Credit, etc&lt;br&gt;5.2 Check QuerySessionInfo&lt;br&gt;" style="html=1;points=[];perimeter=orthogonalPerimeter;fontSize=14;align=left;" vertex="1" parent="AwqJYShP68_Ub-fTXS_M-2">
          <mxGeometry x="45" y="560" width="10" height="180" as="geometry" />
        </mxCell>
        <mxCell id="AwqJYShP68_Ub-fTXS_M-51" value="1. Check and update SessionStore&lt;br&gt;2. Clean Timeout Session Store" style="html=1;points=[];perimeter=orthogonalPerimeter;fontSize=14;align=left;" vertex="1" parent="AwqJYShP68_Ub-fTXS_M-2">
          <mxGeometry x="40" y="900" width="10" height="120" as="geometry" />
        </mxCell>
        <mxCell id="AwqJYShP68_Ub-fTXS_M-52" value="" style="edgeStyle=orthogonalEdgeStyle;html=1;align=left;spacingLeft=2;endArrow=block;rounded=0;entryX=1;entryY=0;fontSize=14;" edge="1" target="AwqJYShP68_Ub-fTXS_M-51" parent="AwqJYShP68_Ub-fTXS_M-2" source="AwqJYShP68_Ub-fTXS_M-53">
          <mxGeometry relative="1" as="geometry">
            <mxPoint x="45" y="880" as="sourcePoint" />
            <Array as="points">
              <mxPoint x="75" y="880" />
            </Array>
          </mxGeometry>
        </mxCell>
        <mxCell id="AwqJYShP68_Ub-fTXS_M-54" value="Every 10 min" style="edgeLabel;html=1;align=center;verticalAlign=middle;resizable=0;points=[];fontSize=14;" vertex="1" connectable="0" parent="AwqJYShP68_Ub-fTXS_M-52">
          <mxGeometry x="-0.287" y="1" relative="1" as="geometry">
            <mxPoint x="44" as="offset" />
          </mxGeometry>
        </mxCell>
        <mxCell id="AwqJYShP68_Ub-fTXS_M-53" value="" style="html=1;verticalLabelPosition=bottom;align=center;labelBackgroundColor=#ffffff;verticalAlign=top;strokeWidth=2;strokeColor=#0080F0;shadow=0;dashed=0;shape=mxgraph.ios7.icons.gauge;fontSize=14;" vertex="1" parent="AwqJYShP68_Ub-fTXS_M-2">
          <mxGeometry x="28.80000000000001" y="864.25" width="32.4" height="31.5" as="geometry" />
        </mxCell>
        <mxCell id="AwqJYShP68_Ub-fTXS_M-4" value="Actor" style="shape=umlActor;verticalLabelPosition=bottom;verticalAlign=top;html=1;" vertex="1" parent="1">
          <mxGeometry x="90" y="600" width="30" height="60" as="geometry" />
        </mxCell>
        <mxCell id="AwqJYShP68_Ub-fTXS_M-7" value="1. Open Session" style="html=1;verticalAlign=bottom;endArrow=block;entryX=0;entryY=0;rounded=0;" edge="1" target="AwqJYShP68_Ub-fTXS_M-6" parent="1" source="AwqJYShP68_Ub-fTXS_M-1">
          <mxGeometry relative="1" as="geometry">
            <mxPoint x="455" y="610" as="sourcePoint" />
          </mxGeometry>
        </mxCell>
        <mxCell id="AwqJYShP68_Ub-fTXS_M-8" value="" style="html=1;verticalAlign=bottom;endArrow=open;dashed=1;endSize=8;exitX=0;exitY=0.95;rounded=0;align=left;" edge="1" source="AwqJYShP68_Ub-fTXS_M-6" parent="1" target="AwqJYShP68_Ub-fTXS_M-1">
          <mxGeometry x="0.0742" y="-52" relative="1" as="geometry">
            <mxPoint x="455" y="686" as="targetPoint" />
            <mxPoint as="offset" />
          </mxGeometry>
        </mxCell>
        <mxCell id="AwqJYShP68_Ub-fTXS_M-22" value="2. Return Session context" style="edgeLabel;html=1;align=center;verticalAlign=middle;resizable=0;points=[];fontSize=14;" vertex="1" connectable="0" parent="AwqJYShP68_Ub-fTXS_M-8">
          <mxGeometry x="-0.7648" y="-2" relative="1" as="geometry">
            <mxPoint x="-72" y="-10" as="offset" />
          </mxGeometry>
        </mxCell>
        <mxCell id="AwqJYShP68_Ub-fTXS_M-15" value="3. Query with SessionId" style="html=1;verticalAlign=bottom;endArrow=block;entryX=0;entryY=0;rounded=0;fontSize=14;" edge="1" target="AwqJYShP68_Ub-fTXS_M-14" parent="1" source="AwqJYShP68_Ub-fTXS_M-1">
          <mxGeometry relative="1" as="geometry">
            <mxPoint x="455" y="870" as="sourcePoint" />
          </mxGeometry>
        </mxCell>
        <mxCell id="AwqJYShP68_Ub-fTXS_M-16" value="4. Return QueryResult" style="html=1;verticalAlign=bottom;endArrow=open;dashed=1;endSize=8;exitX=0;exitY=0.95;rounded=0;fontSize=14;" edge="1" source="AwqJYShP68_Ub-fTXS_M-14" parent="1" target="AwqJYShP68_Ub-fTXS_M-1">
          <mxGeometry relative="1" as="geometry">
            <mxPoint x="455" y="946" as="targetPoint" />
          </mxGeometry>
        </mxCell>
        <mxCell id="AwqJYShP68_Ub-fTXS_M-26" value="5. Close Session (SessionId)" style="html=1;verticalAlign=bottom;endArrow=block;entryX=0;entryY=0;rounded=0;fontSize=14;" edge="1" target="AwqJYShP68_Ub-fTXS_M-25" parent="1">
          <mxGeometry relative="1" as="geometry">
            <mxPoint x="329.5" y="1080.0000000000005" as="sourcePoint" />
          </mxGeometry>
        </mxCell>
        <mxCell id="AwqJYShP68_Ub-fTXS_M-27" value="6. Return SessionContext" style="html=1;verticalAlign=bottom;endArrow=open;dashed=1;endSize=8;exitX=0;exitY=0.95;rounded=0;fontSize=14;" edge="1" source="AwqJYShP68_Ub-fTXS_M-25" parent="1">
          <mxGeometry relative="1" as="geometry">
            <mxPoint x="329.5" y="1251" as="targetPoint" />
          </mxGeometry>
        </mxCell>
        <mxCell id="AwqJYShP68_Ub-fTXS_M-32" value="MemPool" style="shape=umlLifeline;perimeter=lifelinePerimeter;whiteSpace=wrap;html=1;container=1;collapsible=0;recursiveResize=0;outlineConnect=0;fontSize=14;" vertex="1" parent="1">
          <mxGeometry x="930" y="520" width="100" height="1230" as="geometry" />
        </mxCell>
        <mxCell id="AwqJYShP68_Ub-fTXS_M-33" value="" style="html=1;points=[];perimeter=orthogonalPerimeter;fontSize=14;" vertex="1" parent="AwqJYShP68_Ub-fTXS_M-32">
          <mxGeometry x="45" y="690" width="10" height="50" as="geometry" />
        </mxCell>
        <mxCell id="AwqJYShP68_Ub-fTXS_M-34" value="5.3 Submit Query Session" style="html=1;verticalAlign=bottom;endArrow=block;entryX=0;entryY=0;rounded=0;fontSize=14;" edge="1" target="AwqJYShP68_Ub-fTXS_M-33" parent="1">
          <mxGeometry relative="1" as="geometry">
            <mxPoint x="529.5" y="1210" as="sourcePoint" />
          </mxGeometry>
        </mxCell>
        <mxCell id="AwqJYShP68_Ub-fTXS_M-35" value="5.4 Submit Info (TxID, Hash)" style="html=1;verticalAlign=bottom;endArrow=open;dashed=1;endSize=8;exitX=0;exitY=0.95;rounded=0;fontSize=14;" edge="1" source="AwqJYShP68_Ub-fTXS_M-33" parent="1">
          <mxGeometry relative="1" as="geometry">
            <mxPoint x="529.5" y="1257.5" as="targetPoint" />
          </mxGeometry>
        </mxCell>
        <mxCell id="AwqJYShP68_Ub-fTXS_M-48" value="&lt;h1&gt;SessionStore&lt;/h1&gt;&lt;p&gt;HashMap&amp;lt;Account, SessionPool&amp;gt;&lt;/p&gt;&lt;p&gt;SessionPool : HashMap&amp;lt;SessionId, SessionInfoManager&amp;gt;&lt;/p&gt;" style="text;html=1;strokeColor=none;fillColor=none;spacing=5;spacingTop=-20;whiteSpace=wrap;overflow=hidden;rounded=0;fontSize=14;" vertex="1" parent="1">
          <mxGeometry x="1040" y="800" width="450" height="130" as="geometry" />
        </mxCell>
        <mxCell id="AwqJYShP68_Ub-fTXS_M-49" value="&lt;h1&gt;SessionContext&lt;/h1&gt;&lt;p&gt;&lt;span style=&quot;font-size: 11px;&quot;&gt;SessionTimeout,&lt;/span&gt;&lt;br style=&quot;font-size: 11px;&quot;&gt;&lt;span style=&quot;font-size: 11px;&quot;&gt;MaxQueryTimes,&lt;/span&gt;&lt;br style=&quot;font-size: 11px;&quot;&gt;&lt;span style=&quot;font-size: 11px;&quot;&gt;SessionId&lt;/span&gt;&lt;br style=&quot;font-size: 11px;&quot;&gt;&lt;span style=&quot;font-size: 11px;&quot;&gt;Status&lt;/span&gt;&lt;br style=&quot;font-size: 11px;&quot;&gt;&lt;span style=&quot;font-size: 11px;&quot;&gt;Msg&lt;/span&gt;&lt;br&gt;&lt;/p&gt;" style="text;html=1;strokeColor=none;fillColor=none;spacing=5;spacingTop=-20;whiteSpace=wrap;overflow=hidden;rounded=0;fontSize=14;" vertex="1" parent="1">
          <mxGeometry x="1040" y="600" width="250" height="150" as="geometry" />
        </mxCell>
        <mxCell id="AwqJYShP68_Ub-fTXS_M-50" value="&lt;h1&gt;DB3Context&lt;/h1&gt;&lt;p&gt;SessionStore&lt;/p&gt;&lt;p&gt;AuthStore&lt;/p&gt;&lt;p&gt;StatInfo&lt;/p&gt;" style="text;html=1;strokeColor=none;fillColor=none;spacing=5;spacingTop=-20;whiteSpace=wrap;overflow=hidden;rounded=0;fontSize=14;" vertex="1" parent="1">
          <mxGeometry x="1040" y="960" width="230" height="180" as="geometry" />
        </mxCell>
      </root>
    </mxGraphModel>
  </diagram>
</mxfile>
